<svg id="visual" viewBox="0 0 900 600" width="900" height="600" xmlns="http://www.w3.org/2000/svg" xmlns:xlink="http://www.w3.org/1999/xlink" version="1.1"><rect x="0" y="0" width="900" height="600" fill="#e1e1b5"></rect><path d="M0 411L21.5 415.8C43 420.7 86 430.3 128.8 422C171.7 413.7 214.3 387.3 257.2 384.3C300 381.3 343 401.7 385.8 413.7C428.7 425.7 471.3 429.3 514.2 433.5C557 437.7 600 442.3 642.8 438.8C685.7 435.3 728.3 423.7 771.2 411.2C814 398.7 857 385.3 878.5 378.7L900 372L900 601L878.5 601C857 601 814 601 771.2 601C728.3 601 685.7 601 642.8 601C600 601 557 601 514.2 601C471.3 601 428.7 601 385.8 601C343 601 300 601 257.2 601C214.3 601 171.7 601 128.8 601C86 601 43 601 21.5 601L0 601Z" fill="#3f6d31"></path><path d="M0 426L21.5 429.8C43 433.7 86 441.3 128.8 437C171.7 432.7 214.3 416.3 257.2 420C300 423.7 343 447.3 385.8 448.3C428.7 449.3 471.3 427.7 514.2 416.3C557 405 600 404 642.8 410.5C685.7 417 728.3 431 771.2 433C814 435 857 425 878.5 420L900 415L900 601L878.5 601C857 601 814 601 771.2 601C728.3 601 685.7 601 642.8 601C600 601 557 601 514.2 601C471.3 601 428.7 601 385.8 601C343 601 300 601 257.2 601C214.3 601 171.7 601 128.8 601C86 601 43 601 21.5 601L0 601Z" fill="#2f5723"></path><path d="M0 491L21.5 485.8C43 480.7 86 470.3 128.8 466.7C171.7 463 214.3 466 257.2 467.8C300 469.7 343 470.3 385.8 468.2C428.7 466 471.3 461 514.2 459C557 457 600 458 642.8 458.2C685.7 458.3 728.3 457.7 771.2 464.2C814 470.7 857 484.3 878.5 491.2L900 498L900 601L878.5 601C857 601 814 601 771.2 601C728.3 601 685.7 601 642.8 601C600 601 557 601 514.2 601C471.3 601 428.7 601 385.8 601C343 601 300 601 257.2 601C214.3 601 171.7 601 128.8 601C86 601 43 601 21.5 601L0 601Z" fill="#204116"></path><path d="M0 493L21.5 497.5C43 502 86 511 128.8 516C171.7 521 214.3 522 257.2 523C300 524 343 525 385.8 528C428.7 531 471.3 536 514.2 529.3C557 522.7 600 504.3 642.8 498C685.7 491.7 728.3 497.3 771.2 499.8C814 502.3 857 501.7 878.5 501.3L900 501L900 601L878.5 601C857 601 814 601 771.2 601C728.3 601 685.7 601 642.8 601C600 601 557 601 514.2 601C471.3 601 428.7 601 385.8 601C343 601 300 601 257.2 601C214.3 601 171.7 601 128.8 601C86 601 43 601 21.5 601L0 601Z" fill="#1c3815"></path><path d="M0 551L21.5 549.2C43 547.3 86 543.7 128.8 542C171.7 540.3 214.3 540.7 257.2 539.5C300 538.3 343 535.7 385.8 535.3C428.7 535 471.3 537 514.2 541.7C557 546.3 600 553.7 642.8 552.7C685.7 551.7 728.3 542.3 771.2 544.3C814 546.3 857 559.7 878.5 566.3L900 573L900 601L878.5 601C857 601 814 601 771.2 601C728.3 601 685.7 601 642.8 601C600 601 557 601 514.2 601C471.3 601 428.7 601 385.8 601C343 601 300 601 257.2 601C214.3 601 171.7 601 128.8 601C86 601 43 601 21.5 601L0 601Z" fill="#193013"></path></svg>