<svg xmlns="http://www.w3.org/2000/svg" xmlns:xlink="http://www.w3.org/1999/xlink" version="1.1" width="1000" height="1000" viewBox="0 0 1000 1000" xml:space="preserve">
<desc>Created with Fabric.js 3.5.0</desc>
<defs>
</defs>
<rect x="0" y="0" width="100%" height="100%" fill="rgba(255,255,255,0)"/>
<g transform="matrix(0.5262 0 0 0.5262 500 500)" id="633189">
<g style="" vector-effect="non-scaling-stroke">
		<g transform="matrix(1 0 0 1 -68.8119 -1.2247)">
<path style="stroke: none; stroke-width: 1; stroke-dasharray: none; stroke-linecap: butt; stroke-dashoffset: 0; stroke-linejoin: miter; stroke-miterlimit: 4; is-custom-font: none; font-file-url: none; fill: rgb(63,61,86); fill-rule: nonzero; opacity: 1;" transform=" translate(-531.1881, -448.7753)" d="M 708.72606 261.94463 h -3.91268 V 154.7579 a 62.03677 62.03677 0 0 0 -62.037 -62.03684 H 415.687 A 62.03678 62.03678 0 0 0 353.65 154.7579 V 742.79264 a 62.03677 62.03677 0 0 0 62.037 62.03683 H 642.77643 a 62.03676 62.03676 0 0 0 62.037 -62.03683 V 338.242 h 3.91268 Z" stroke-linecap="round"/>
</g>
		<g transform="matrix(1 0 0 1 -51.0632 326.5922)">
<rect style="stroke: none; stroke-width: 1; stroke-dasharray: none; stroke-linecap: butt; stroke-dashoffset: 0; stroke-linejoin: miter; stroke-miterlimit: 4; is-custom-font: none; font-file-url: none; fill: rgb(63,61,86); fill-rule: nonzero; opacity: 1;" x="-359" y="-1" rx="0" ry="0" width="718" height="2"/>
</g>
		<g transform="matrix(1 0 0 1 -68.812 -1.2247)">
<path style="stroke: none; stroke-width: 1; stroke-dasharray: none; stroke-linecap: butt; stroke-dashoffset: 0; stroke-linejoin: miter; stroke-miterlimit: 4; is-custom-font: none; font-file-url: none; fill: rgb(0,0,0); fill-rule: nonzero; opacity: 0.2;" transform=" translate(-531.188, -448.7753)" d="M 645.27966 108.8609 H 615.637 a 22.0105 22.0105 0 0 1 -20.37872 30.3233 H 465.1615 a 22.01052 22.01052 0 0 1 -20.37873 -30.3233 H 417.09643 A 46.32837 46.32837 0 0 0 370.768 155.18921 V 742.36127 a 46.32839 46.32839 0 0 0 46.32843 46.32837 H 645.27966 a 46.32838 46.32838 0 0 0 46.32843 -46.32837 V 155.18921 A 46.32836 46.32836 0 0 0 645.27966 108.8609 Z" stroke-linecap="round"/>
</g>
		<g transform="matrix(1 0 0 1 -359.2851 289.3939)">
<path style="stroke: none; stroke-width: 1; stroke-dasharray: none; stroke-linecap: butt; stroke-dashoffset: 0; stroke-linejoin: miter; stroke-miterlimit: 4; is-custom-font: none; font-file-url: none; fill: rgb(63,61,86); fill-rule: nonzero; opacity: 1;" transform=" translate(-240.7149, -739.3939)" d="M 261.25515 777.48617 l -1.07324 -0.40234 c -0.23584 -0.08887 -23.7085 -9.082 -34.7041 -29.47364 c -10.9961 -20.39257 -5.61182 -44.94531 -5.55615 -45.19043 l 0.25341 -1.11816 l 1.07276 0.40234 c 0.23584 0.08887 23.708 9.082 34.7041 29.47364 c 10.99609 20.39258 5.61182 44.94531 5.55615 45.19043 Z M 227.23855 746.661 c 9.29639 17.24121 27.84521 26.0791 32.54492 28.09668 c 0.89356 -5.03711 3.6958 -25.40625 -5.59228 -42.63086 c -9.28711 -17.22266 -27.84327 -26.07422 -32.54493 -28.09668 C 220.75222 709.07016 217.951 729.43734 227.23855 746.661 Z" stroke-linecap="round"/>
</g>
		<g transform="matrix(1 0 0 1 -374.5277 304.4336)">
<path style="stroke: none; stroke-width: 1; stroke-dasharray: none; stroke-linecap: butt; stroke-dashoffset: 0; stroke-linejoin: miter; stroke-miterlimit: 4; is-custom-font: none; font-file-url: none; fill: rgb(37,88,21); fill-rule: nonzero; opacity: 1;" transform=" translate(-225.4723, -754.4336)" d="M 233.881 740.45715 c 19.76056 11.88861 27.371 35.50266 27.371 35.50266 s -24.42779 4.33881 -44.18835 -7.5498 s -27.371 -35.50266 -27.371 -35.50266 S 214.12043 728.56854 233.881 740.45715 Z" stroke-linecap="round"/>
</g>
		<g transform="matrix(1 0 0 1 -149.6593 -122.1001)">
<rect style="stroke: none; stroke-width: 1; stroke-dasharray: none; stroke-linecap: butt; stroke-dashoffset: 0; stroke-linejoin: miter; stroke-miterlimit: 4; is-custom-font: none; font-file-url: none; fill: rgb(37,88,21); fill-rule: nonzero; opacity: 1;" x="-21.98075" y="-5.29165" rx="0" ry="0" width="43.9615" height="10.5833"/>
</g>
		<g transform="matrix(1 0 0 1 16.8247 -122.1001)">
<rect style="stroke: none; stroke-width: 1; stroke-dasharray: none; stroke-linecap: butt; stroke-dashoffset: 0; stroke-linejoin: miter; stroke-miterlimit: 4; is-custom-font: none; font-file-url: none; fill: rgb(37,88,21); fill-rule: nonzero; opacity: 1;" x="-7.734" y="-5.29165" rx="0" ry="0" width="15.468" height="10.5833"/>
</g>
		<g transform="matrix(1 0 0 1 47.7606 -122.1001)">
<rect style="stroke: none; stroke-width: 1; stroke-dasharray: none; stroke-linecap: butt; stroke-dashoffset: 0; stroke-linejoin: miter; stroke-miterlimit: 4; is-custom-font: none; font-file-url: none; fill: rgb(37,88,21); fill-rule: nonzero; opacity: 1;" x="-7.734" y="-5.29165" rx="0" ry="0" width="15.468" height="10.5833"/>
</g>
		<g transform="matrix(1 0 0 1 -59.701 -122.1001)">
<rect style="stroke: none; stroke-width: 1; stroke-dasharray: none; stroke-linecap: butt; stroke-dashoffset: 0; stroke-linejoin: miter; stroke-miterlimit: 4; is-custom-font: none; font-file-url: none; fill: rgb(37,88,21); fill-rule: nonzero; opacity: 1;" x="-52.5096" y="-5.29165" rx="0" ry="0" width="105.0192" height="10.5833"/>
</g>
		<g transform="matrix(1 0 0 1 -38.5343 -53.7156)">
<rect style="stroke: none; stroke-width: 1; stroke-dasharray: none; stroke-linecap: butt; stroke-dashoffset: 0; stroke-linejoin: miter; stroke-miterlimit: 4; is-custom-font: none; font-file-url: none; fill: rgb(37,88,21); fill-rule: nonzero; opacity: 1;" x="-7.734" y="-5.29165" rx="0" ry="0" width="15.468" height="10.5833"/>
</g>
		<g transform="matrix(1 0 0 1 -7.5984 -53.7156)">
<rect style="stroke: none; stroke-width: 1; stroke-dasharray: none; stroke-linecap: butt; stroke-dashoffset: 0; stroke-linejoin: miter; stroke-miterlimit: 4; is-custom-font: none; font-file-url: none; fill: rgb(37,88,21); fill-rule: nonzero; opacity: 1;" x="-7.734" y="-5.29165" rx="0" ry="0" width="15.468" height="10.5833"/>
</g>
		<g transform="matrix(1 0 0 1 -115.06 -53.7156)">
<rect style="stroke: none; stroke-width: 1; stroke-dasharray: none; stroke-linecap: butt; stroke-dashoffset: 0; stroke-linejoin: miter; stroke-miterlimit: 4; is-custom-font: none; font-file-url: none; fill: rgb(37,88,21); fill-rule: nonzero; opacity: 1;" x="-52.5096" y="-5.29165" rx="0" ry="0" width="105.0192" height="10.5833"/>
</g>
		<g transform="matrix(1 0 0 1 -23.4734 -98.4911)">
<rect style="stroke: none; stroke-width: 1; stroke-dasharray: none; stroke-linecap: butt; stroke-dashoffset: 0; stroke-linejoin: miter; stroke-miterlimit: 4; is-custom-font: none; font-file-url: none; fill: rgb(37,88,21); fill-rule: nonzero; opacity: 1;" x="-21.98075" y="-5.29165" rx="0" ry="0" width="43.9615" height="10.5833"/>
</g>
		<g transform="matrix(1 0 0 1 35.9561 -98.4911)">
<rect style="stroke: none; stroke-width: 1; stroke-dasharray: none; stroke-linecap: butt; stroke-dashoffset: 0; stroke-linejoin: miter; stroke-miterlimit: 4; is-custom-font: none; font-file-url: none; fill: rgb(37,88,21); fill-rule: nonzero; opacity: 1;" x="-21.98075" y="-5.29165" rx="0" ry="0" width="43.9615" height="10.5833"/>
</g>
		<g transform="matrix(1 0 0 1 -188.3292 -98.4911)">
<rect style="stroke: none; stroke-width: 1; stroke-dasharray: none; stroke-linecap: butt; stroke-dashoffset: 0; stroke-linejoin: miter; stroke-miterlimit: 4; is-custom-font: none; font-file-url: none; fill: rgb(37,88,21); fill-rule: nonzero; opacity: 1;" x="-7.734" y="-5.29165" rx="0" ry="0" width="15.468" height="10.5833"/>
</g>
		<g transform="matrix(1 0 0 1 -112.6177 -98.4911)">
<rect style="stroke: none; stroke-width: 1; stroke-dasharray: none; stroke-linecap: butt; stroke-dashoffset: 0; stroke-linejoin: miter; stroke-miterlimit: 4; is-custom-font: none; font-file-url: none; fill: rgb(37,88,21); fill-rule: nonzero; opacity: 1;" x="-52.5096" y="-5.29165" rx="0" ry="0" width="105.0192" height="10.5833"/>
</g>
		<g transform="matrix(-1 0 0 -1 -114.6529 -75.6963)">
<rect style="stroke: none; stroke-width: 1; stroke-dasharray: none; stroke-linecap: butt; stroke-dashoffset: 0; stroke-linejoin: miter; stroke-miterlimit: 4; is-custom-font: none; font-file-url: none; fill: rgb(37,88,21); fill-rule: nonzero; opacity: 1;" x="-21.98075" y="-5.29165" rx="0" ry="0" width="43.9615" height="10.5833"/>
</g>
		<g transform="matrix(-1 0 0 -1 -174.0823 -75.6963)">
<rect style="stroke: none; stroke-width: 1; stroke-dasharray: none; stroke-linecap: butt; stroke-dashoffset: 0; stroke-linejoin: miter; stroke-miterlimit: 4; is-custom-font: none; font-file-url: none; fill: rgb(37,88,21); fill-rule: nonzero; opacity: 1;" x="-21.98075" y="-5.29165" rx="0" ry="0" width="43.9615" height="10.5833"/>
</g>
		<g transform="matrix(-1 0 0 -1 50.2028 -75.6963)">
<rect style="stroke: none; stroke-width: 1; stroke-dasharray: none; stroke-linecap: butt; stroke-dashoffset: 0; stroke-linejoin: miter; stroke-miterlimit: 4; is-custom-font: none; font-file-url: none; fill: rgb(37,88,21); fill-rule: nonzero; opacity: 1;" x="-7.734" y="-5.29165" rx="0" ry="0" width="15.468" height="10.5833"/>
</g>
		<g transform="matrix(-1 0 0 -1 -25.5086 -75.6963)">
<rect style="stroke: none; stroke-width: 1; stroke-dasharray: none; stroke-linecap: butt; stroke-dashoffset: 0; stroke-linejoin: miter; stroke-miterlimit: 4; is-custom-font: none; font-file-url: none; fill: rgb(37,88,21); fill-rule: nonzero; opacity: 1;" x="-52.5096" y="-5.29165" rx="0" ry="0" width="105.0192" height="10.5833"/>
</g>
		<g transform="matrix(1 0 0 1 -68.812 96.5922)">
<circle style="stroke: none; stroke-width: 1; stroke-dasharray: none; stroke-linecap: butt; stroke-dashoffset: 0; stroke-linejoin: miter; stroke-miterlimit: 4; is-custom-font: none; font-file-url: none; fill: rgb(37,88,21); fill-rule: nonzero; opacity: 1;" cx="0" cy="0" r="40"/>
</g>
		<g transform="matrix(1 0 0 1 147.6692 -115.4854)">
<path style="stroke: none; stroke-width: 1; stroke-dasharray: none; stroke-linecap: butt; stroke-dashoffset: 0; stroke-linejoin: miter; stroke-miterlimit: 4; is-custom-font: none; font-file-url: none; fill: rgb(47,46,65); fill-rule: nonzero; opacity: 1;" transform=" translate(-747.6692, -334.5147)" d="M 789.10665 310.20453 c -11.60691 -19.6121 -34.57027 -20.52611 -34.57027 -20.52611 s -22.37648 -2.86148 -36.73085 27.008 c -13.37942 27.8408 -31.84473 54.72165 -2.97276 61.239 l 5.21511 -16.23177 l 3.22969 17.4402 a 112.96671 112.96671 0 0 0 12.35324 0.21113 c 30.91954 -0.99827 60.36573 0.29207 59.4176 -10.80316 C 793.788 353.79224 800.27484 329.07528 789.10665 310.20453 Z" stroke-linecap="round"/>
</g>
		<g transform="matrix(1 0 0 1 171.8074 -70.3616)">
<path style="stroke: none; stroke-width: 1; stroke-dasharray: none; stroke-linecap: butt; stroke-dashoffset: 0; stroke-linejoin: miter; stroke-miterlimit: 4; is-custom-font: none; font-file-url: none; fill: rgb(251,190,190); fill-rule: nonzero; opacity: 1;" transform=" translate(-771.8074, -379.6384)" d="M 747.30736 347.13835 s 15 21 6 38 s 21 35 21 35 l 22 -48 s -26 -17 -19 -33 Z" stroke-linecap="round"/>
</g>
		<g transform="matrix(1 0 0 1 157.3074 -119.8617)">
<circle style="stroke: none; stroke-width: 1; stroke-dasharray: none; stroke-linecap: butt; stroke-dashoffset: 0; stroke-linejoin: miter; stroke-miterlimit: 4; is-custom-font: none; font-file-url: none; fill: rgb(251,190,190); fill-rule: nonzero; opacity: 1;" cx="0" cy="0" r="26"/>
</g>
		<g transform="matrix(1 0 0 1 89.5575 -112.6269)">
<path style="stroke: none; stroke-width: 1; stroke-dasharray: none; stroke-linecap: butt; stroke-dashoffset: 0; stroke-linejoin: miter; stroke-miterlimit: 4; is-custom-font: none; font-file-url: none; fill: rgb(251,190,190); fill-rule: nonzero; opacity: 1;" transform=" translate(-689.5574, -337.3731)" d="M 667.32787 360.19421 l 21.72805 -28.03377 s 7.6506 -29.38483 18.73125 -27.89516 s -4.3766 35.23983 -4.3766 35.23983 l -21.58945 31.03056 Z" stroke-linecap="round"/>
</g>
		<g transform="matrix(1 0 0 1 188.3076 302.1381)">
<polygon style="stroke: none; stroke-width: 1; stroke-dasharray: none; stroke-linecap: butt; stroke-dashoffset: 0; stroke-linejoin: miter; stroke-miterlimit: 4; is-custom-font: none; font-file-url: none; fill: rgb(251,190,190); fill-rule: nonzero; opacity: 1;" points="-11,-19 -4,18 11,22 7,-22 -11,-19 "/>
</g>
		<g transform="matrix(1 0 0 1 351.8076 260.1381)">
<polygon style="stroke: none; stroke-width: 1; stroke-dasharray: none; stroke-linecap: butt; stroke-dashoffset: 0; stroke-linejoin: miter; stroke-miterlimit: 4; is-custom-font: none; font-file-url: none; fill: rgb(251,190,190); fill-rule: nonzero; opacity: 1;" points="-23.5,-17 3.5,20 14.5,25 23.5,10 -3.5,-25 -23.5,-17 "/>
</g>
		<g transform="matrix(1 0 0 1 171.593 -28.8616)">
<path style="stroke: none; stroke-width: 1; stroke-dasharray: none; stroke-linecap: butt; stroke-dashoffset: 0; stroke-linejoin: miter; stroke-miterlimit: 4; is-custom-font: none; font-file-url: none; fill: rgb(87,90,137); fill-rule: nonzero; opacity: 1;" transform=" translate(-771.593, -421.1383)" d="M 771.30736 404.13835 L 754.62626 382.179 s -32.3189 5.95934 -35.3189 8.95934 s 8 58 8 58 s 2 15 11 23 l 9 6 l 74 -15 l 2.78246 -32.92581 a 86.41011 86.41011 0 0 0 -22.78243 -66.07417 l 0 0 l -12.8758 1.76021 Z" stroke-linecap="round"/>
</g>
		<g transform="matrix(1 0 0 1 89.8047 -51.2618)">
<path style="stroke: none; stroke-width: 1; stroke-dasharray: none; stroke-linecap: butt; stroke-dashoffset: 0; stroke-linejoin: miter; stroke-miterlimit: 4; is-custom-font: none; font-file-url: none; fill: rgb(87,90,137); fill-rule: nonzero; opacity: 1;" transform=" translate(-689.8047, -398.7381)" d="M 723.30736 393.13835 l -5 -2 l -23 -2 s -8 -2 -6 -6 s 4 -5 0 -6 s -5 -2 -4 -5 s 7 -9 7 -9 l -17 -14 s -0.9201 0.6508 -2.4073 1.85491 c -8.44043 6.83375 -35.1472 31.48942 -15.5927 56.14509 c 23 29 50 46 72 40 Z" stroke-linecap="round"/>
</g>
		<g transform="matrix(1 0 0 1 247.7021 150.9549)">
<path style="stroke: none; stroke-width: 1; stroke-dasharray: none; stroke-linecap: butt; stroke-dashoffset: 0; stroke-linejoin: miter; stroke-miterlimit: 4; is-custom-font: none; font-file-url: none; fill: rgb(47,46,65); fill-rule: nonzero; opacity: 1;" transform=" translate(-847.7021, -600.9548)" d="M 745.30736 473.13835 v 14 s -9 17 -6 33 s 4 24 4 24 a 136.53331 136.53331 0 0 0 7 40 c 7 20 -16 151 13 153 s 45 4 54 -6 s -15 -182 -15 -182 s 82 171 99 164 s 60 -23 55 -32 s -131 -209 -131 -209 l -4 -9 Z" stroke-linecap="round"/>
</g>
		<g transform="matrix(1 0 0 1 186.7563 335.1678)">
<path style="stroke: none; stroke-width: 1; stroke-dasharray: none; stroke-linecap: butt; stroke-dashoffset: 0; stroke-linejoin: miter; stroke-miterlimit: 4; is-custom-font: none; font-file-url: none; fill: rgb(47,46,65); fill-rule: nonzero; opacity: 1;" transform=" translate(-786.7563, -785.1678)" d="M 793.30736 763.13835 s -16 -1 -16 4 s -8 22 -8 22 s -6 20 10 18 s 26 -20 26 -20 l -4 -19 Z" stroke-linecap="round"/>
</g>
		<g transform="matrix(1 0 0 1 378.7818 289.7479)">
<path style="stroke: none; stroke-width: 1; stroke-dasharray: none; stroke-linecap: butt; stroke-dashoffset: 0; stroke-linejoin: miter; stroke-miterlimit: 4; is-custom-font: none; font-file-url: none; fill: rgb(47,46,65); fill-rule: nonzero; opacity: 1;" transform=" translate(-978.7818, -739.7478)" d="M 960.30736 728.13835 s -14 -9 -13 -3 s 2 22 9 23 s 28 7 29 9 s 25 10 25 -3 s -15 -23 -15 -23 l -17 -13 s -11 -1 -13 6 S 960.30736 728.13835 960.30736 728.13835 Z" stroke-linecap="round"/>
</g>
		<g transform="matrix(1 0 0 1 157.3469 -160.2222)">
<circle style="stroke: none; stroke-width: 1; stroke-dasharray: none; stroke-linecap: butt; stroke-dashoffset: 0; stroke-linejoin: miter; stroke-miterlimit: 4; is-custom-font: none; font-file-url: none; fill: rgb(47,46,65); fill-rule: nonzero; opacity: 1;" cx="0" cy="0" r="16.60376"/>
</g>
		<g transform="matrix(1 0 0 1 144.6704 -164.5916)">
<path style="stroke: none; stroke-width: 1; stroke-dasharray: none; stroke-linecap: butt; stroke-dashoffset: 0; stroke-linejoin: miter; stroke-miterlimit: 4; is-custom-font: none; font-file-url: none; fill: rgb(47,46,65); fill-rule: nonzero; opacity: 1;" transform=" translate(-744.6704, -285.4083)" d="M 738.99533 285.40835 a 16.6044 16.6044 0 0 1 14.856 -16.51042 a 16.60376 16.60376 0 1 0 0 33.02084 A 16.6044 16.6044 0 0 1 738.99533 285.40835 Z" stroke-linecap="round"/>
</g>
		<g transform="matrix(1 0 0 1 154.2666 -136.8249)">
<polygon style="stroke: none; stroke-width: 1; stroke-dasharray: none; stroke-linecap: butt; stroke-dashoffset: 0; stroke-linejoin: miter; stroke-miterlimit: 4; is-custom-font: none; font-file-url: none; fill: rgb(47,46,65); fill-rule: nonzero; opacity: 1;" points="29.708,-4.861 7.022,-16.745 -24.308,-11.883 -30.789,16.745 -14.654,16.125 -10.146,5.607 -10.146,15.951 -2.701,15.665 1.62,-1.08 4.321,16.745 30.789,16.205 29.708,-4.861 "/>
</g>
		<g transform="matrix(1 0 0 1 150.9996 17.6311)">
<path style="stroke: none; stroke-width: 1; stroke-dasharray: none; stroke-linecap: butt; stroke-dashoffset: 0; stroke-linejoin: miter; stroke-miterlimit: 4; is-custom-font: none; font-file-url: none; fill: rgb(251,190,190); fill-rule: nonzero; opacity: 1;" transform=" translate(-750.9995, -467.6312)" d="M 782.6166 475.45507 l -34.98722 0.94591 s -29.85391 5.809 -28.17895 -6.24071 s 30.79949 -7.83525 30.79949 -7.83525 l 31.88021 -4.86338 Z" stroke-linecap="round"/>
</g>
		<g transform="matrix(1 0 0 1 203.8654 -27.5928)">
<path style="stroke: none; stroke-width: 1; stroke-dasharray: none; stroke-linecap: butt; stroke-dashoffset: 0; stroke-linejoin: miter; stroke-miterlimit: 4; is-custom-font: none; font-file-url: none; fill: rgb(87,90,137); fill-rule: nonzero; opacity: 1;" transform=" translate(-803.8654, -422.4072)" d="M 810.29862 362.44321 a 7.46666 7.46666 0 0 1 8.23586 5.128 c 6.84947 21.584 27.95077 93.81335 6.98533 103.72284 c -24.69358 11.67164 -42.714 11.15847 -42.714 11.15847 l -9.64534 -23.748 l 8.78051 -8.24031 l 9.37441 -60.27537 l 4.492 -25.55048 Z" stroke-linecap="round"/>
</g>
		<g transform="matrix(1 0 0 1 184.3076 -19.8619)">
<polygon style="stroke: none; stroke-width: 1; stroke-dasharray: none; stroke-linecap: butt; stroke-dashoffset: 0; stroke-linejoin: miter; stroke-miterlimit: 4; is-custom-font: none; font-file-url: none; fill: rgb(0,0,0); fill-rule: nonzero; opacity: 0.4;" points="19.5,-27.5 15.5,12.5 -19.5,27.5 19.5,18.5 19.5,-27.5 "/>
</g>
</g>
</g>
<g transform="matrix(1 0 0 1 485.1657 710.9533)" style="" id="669789">
		
<path xml:space="preserve" font-family="Lato" font-size="48" font-style="normal" font-weight="bold" style="stroke: none; stroke-width: 1; stroke-dasharray: none; stroke-linecap: butt; stroke-dashoffset: 0; stroke-linejoin: miter; stroke-miterlimit: 4; is-custom-font: none; font-file-url: none; fill: rgb(32,65,22); fill-rule: nonzero; opacity: 1; white-space: pre;" d="M-333.41-19.63L-333.41 9.75L-319.52 9.75L-319.52 15.08L-339.87 15.08L-339.87-19.63L-333.41-19.63Z"/><path xml:space="preserve" font-family="Lato" font-size="48" font-style="normal" font-weight="bold" style="stroke: none; stroke-width: 1; stroke-dasharray: none; stroke-linecap: butt; stroke-dashoffset: 0; stroke-linejoin: miter; stroke-miterlimit: 4; is-custom-font: none; font-file-url: none; fill: rgb(32,65,22); fill-rule: nonzero; opacity: 1; white-space: pre;" d="M-305.54-9.93L-305.54-9.93Q-303.22-9.93-301.26-9.19Q-299.30-8.44-297.89-7.01Q-296.47-5.59-295.68-3.51Q-294.89-1.43-294.89 1.23L-294.89 1.23Q-294.89 1.90-294.95 2.35Q-295.01 2.79-295.16 3.04Q-295.32 3.29-295.58 3.40Q-295.85 3.51-296.26 3.51L-296.26 3.51L-311.47 3.51Q-311.21 7.30-309.43 9.08Q-307.66 10.85-304.73 10.85L-304.73 10.85Q-303.29 10.85-302.24 10.52Q-301.20 10.18-300.42 9.77Q-299.64 9.37-299.05 9.03Q-298.46 8.69-297.91 8.69L-297.91 8.69Q-297.55 8.69-297.29 8.84Q-297.02 8.98-296.83 9.25L-296.83 9.25L-295.10 11.41Q-296.09 12.56-297.31 13.34Q-298.54 14.12-299.87 14.59Q-301.20 15.05-302.58 15.25Q-303.96 15.44-305.26 15.44L-305.26 15.44Q-307.82 15.44-310.03 14.59Q-312.24 13.73-313.87 12.07Q-315.50 10.40-316.44 7.94Q-317.38 5.48-317.38 2.24L-317.38 2.24Q-317.38-0.28-316.56-2.50Q-315.74-4.72-314.22-6.37Q-312.70-8.01-310.50-8.97Q-308.30-9.93-305.54-9.93ZM-305.42-5.68L-305.42-5.68Q-308.02-5.68-309.48-4.22Q-310.94-2.75-311.35-0.07L-311.35-0.07L-300.22-0.07Q-300.22-1.22-300.53-2.24Q-300.84-3.26-301.49-4.03Q-302.14-4.79-303.12-5.24Q-304.10-5.68-305.42-5.68Z"/><path xml:space="preserve" font-family="Lato" font-size="48" font-style="normal" font-weight="bold" style="stroke: none; stroke-width: 1; stroke-dasharray: none; stroke-linecap: butt; stroke-dashoffset: 0; stroke-linejoin: miter; stroke-miterlimit: 4; is-custom-font: none; font-file-url: none; fill: rgb(32,65,22); fill-rule: nonzero; opacity: 1; white-space: pre;" d="M-281.86 15.46L-281.86 15.46Q-285.05 15.46-286.78 13.65Q-288.50 11.84-288.50 8.65L-288.50 8.65L-288.50-5.11L-291.00-5.11Q-291.48-5.11-291.83-5.42Q-292.18-5.73-292.18-6.35L-292.18-6.35L-292.18-8.71L-288.22-9.35L-286.97-16.07Q-286.87-16.55-286.52-16.82Q-286.18-17.08-285.65-17.08L-285.65-17.08L-282.58-17.08L-282.58-9.33L-276.10-9.33L-276.10-5.11L-282.58-5.11L-282.58 8.24Q-282.58 9.39-282.00 10.04Q-281.42 10.69-280.46 10.69L-280.46 10.69Q-279.91 10.69-279.54 10.55Q-279.17 10.42-278.89 10.28Q-278.62 10.13-278.40 10.00Q-278.18 9.87-277.97 9.87L-277.97 9.87Q-277.70 9.87-277.54 10.00Q-277.37 10.13-277.18 10.40L-277.18 10.40L-275.40 13.28Q-276.70 14.36-278.38 14.91Q-280.06 15.46-281.86 15.46Z"/><path xml:space="preserve" font-family="Lato" font-size="48" font-style="normal" font-weight="bold" style="stroke: none; stroke-width: 1; stroke-dasharray: none; stroke-linecap: butt; stroke-dashoffset: 0; stroke-linejoin: miter; stroke-miterlimit: 4; is-custom-font: none; font-file-url: none; fill: rgb(32,65,22); fill-rule: nonzero; opacity: 1; white-space: pre;" d="M-271.44-19.63L-266.28-19.63L-266.28-12.71L-266.83-8.97Q-267.00-7.91-267.44-7.35Q-267.89-6.79-268.90-6.79L-268.90-6.79Q-269.76-6.79-270.26-7.35Q-270.77-7.91-270.91-8.97L-270.91-8.97L-271.44-12.71L-271.44-19.63Z"/><path xml:space="preserve" font-family="Lato" font-size="48" font-style="normal" font-weight="bold" style="stroke: none; stroke-width: 1; stroke-dasharray: none; stroke-linecap: butt; stroke-dashoffset: 0; stroke-linejoin: miter; stroke-miterlimit: 4; is-custom-font: none; font-file-url: none; fill: rgb(32,65,22); fill-rule: nonzero; opacity: 1; white-space: pre;" d="M-243.79-6.88L-245.14-4.75Q-245.38-4.36-245.64-4.21Q-245.90-4.05-246.31-4.05L-246.31-4.05Q-246.74-4.05-247.24-4.29Q-247.73-4.53-248.38-4.83Q-249.02-5.13-249.85-5.37Q-250.68-5.61-251.81-5.61L-251.81-5.61Q-253.56-5.61-254.57-4.87Q-255.58-4.12-255.58-2.92L-255.58-2.92Q-255.58-2.13-255.06-1.59Q-254.54-1.05-253.69-0.64Q-252.84-0.23-251.76 0.09Q-250.68 0.41-249.55 0.80Q-248.42 1.18-247.34 1.67Q-246.26 2.17-245.41 2.92Q-244.56 3.68-244.04 4.73Q-243.53 5.79-243.53 7.28L-243.53 7.28Q-243.53 9.05-244.18 10.55Q-244.82 12.05-246.07 13.15Q-247.32 14.24-249.16 14.85Q-250.99 15.46-253.37 15.46L-253.37 15.46Q-254.64 15.46-255.85 15.23Q-257.06 15.01-258.18 14.60Q-259.30 14.19-260.24 13.64Q-261.19 13.09-261.91 12.44L-261.91 12.44L-260.54 10.18Q-260.28 9.77-259.92 9.56Q-259.56 9.34-259.01 9.34L-259.01 9.34Q-258.46 9.34-257.96 9.65Q-257.47 9.97-256.82 10.33Q-256.18 10.69-255.30 11.00Q-254.42 11.31-253.08 11.31L-253.08 11.31Q-252.02 11.31-251.27 11.06Q-250.51 10.81-250.02 10.40Q-249.53 9.99-249.30 9.45Q-249.07 8.91-249.07 8.33L-249.07 8.33Q-249.07 7.47-249.59 6.92Q-250.10 6.37-250.96 5.96Q-251.81 5.55-252.90 5.23Q-253.99 4.90-255.13 4.52Q-256.27 4.13-257.36 3.62Q-258.46 3.10-259.31 2.31Q-260.16 1.52-260.68 0.37Q-261.19-0.79-261.19-2.42L-261.19-2.42Q-261.19-3.93-260.59-5.30Q-259.99-6.67-258.83-7.69Q-257.66-8.71-255.92-9.32Q-254.18-9.93-251.90-9.93L-251.90-9.93Q-249.36-9.93-247.27-9.09Q-245.18-8.25-243.79-6.88L-243.79-6.88Z"/><path xml:space="preserve" font-family="Lato" font-size="48" font-style="normal" font-weight="bold" style="stroke: none; stroke-width: 1; stroke-dasharray: none; stroke-linecap: butt; stroke-dashoffset: 0; stroke-linejoin: miter; stroke-miterlimit: 4; is-custom-font: none; font-file-url: none; fill: rgb(32,65,22); fill-rule: nonzero; opacity: 1; white-space: pre;" d=""/><path xml:space="preserve" font-family="Lato" font-size="48" font-style="normal" font-weight="bold" style="stroke: none; stroke-width: 1; stroke-dasharray: none; stroke-linecap: butt; stroke-dashoffset: 0; stroke-linejoin: miter; stroke-miterlimit: 4; is-custom-font: none; font-file-url: none; fill: rgb(32,65,22); fill-rule: nonzero; opacity: 1; white-space: pre;" d="M-216.33-6.88L-217.68-4.75Q-217.92-4.36-218.18-4.21Q-218.45-4.05-218.85-4.05L-218.85-4.05Q-219.29-4.05-219.78-4.29Q-220.27-4.53-220.92-4.83Q-221.57-5.13-222.39-5.37Q-223.22-5.61-224.35-5.61L-224.35-5.61Q-226.10-5.61-227.11-4.87Q-228.12-4.12-228.12-2.92L-228.12-2.92Q-228.12-2.13-227.60-1.59Q-227.09-1.05-226.23-0.64Q-225.38-0.23-224.30 0.09Q-223.22 0.41-222.09 0.80Q-220.97 1.18-219.89 1.67Q-218.81 2.17-217.95 2.92Q-217.10 3.68-216.59 4.73Q-216.07 5.79-216.07 7.28L-216.07 7.28Q-216.07 9.05-216.72 10.55Q-217.37 12.05-218.61 13.15Q-219.86 14.24-221.70 14.85Q-223.53 15.46-225.91 15.46L-225.91 15.46Q-227.18 15.46-228.39 15.23Q-229.61 15.01-230.72 14.60Q-231.84 14.19-232.79 13.64Q-233.73 13.09-234.45 12.44L-234.45 12.44L-233.09 10.18Q-232.82 9.77-232.46 9.56Q-232.10 9.34-231.55 9.34L-231.55 9.34Q-231.00 9.34-230.51 9.65Q-230.01 9.97-229.37 10.33Q-228.72 10.69-227.84 11.00Q-226.97 11.31-225.62 11.31L-225.62 11.31Q-224.57 11.31-223.81 11.06Q-223.05 10.81-222.56 10.40Q-222.07 9.99-221.84 9.45Q-221.61 8.91-221.61 8.33L-221.61 8.33Q-221.61 7.47-222.13 6.92Q-222.65 6.37-223.50 5.96Q-224.35 5.55-225.44 5.23Q-226.53 4.90-227.67 4.52Q-228.81 4.13-229.91 3.62Q-231.00 3.10-231.85 2.31Q-232.70 1.52-233.22 0.37Q-233.73-0.79-233.73-2.42L-233.73-2.42Q-233.73-3.93-233.13-5.30Q-232.53-6.67-231.37-7.69Q-230.21-8.71-228.47-9.32Q-226.73-9.93-224.45-9.93L-224.45-9.93Q-221.90-9.93-219.81-9.09Q-217.73-8.25-216.33-6.88L-216.33-6.88Z"/><path xml:space="preserve" font-family="Lato" font-size="48" font-style="normal" font-weight="bold" style="stroke: none; stroke-width: 1; stroke-dasharray: none; stroke-linecap: butt; stroke-dashoffset: 0; stroke-linejoin: miter; stroke-miterlimit: 4; is-custom-font: none; font-file-url: none; fill: rgb(32,65,22); fill-rule: nonzero; opacity: 1; white-space: pre;" d="M-200.33-9.93L-200.33-9.93Q-197.57-9.93-195.32-9.04Q-193.08-8.15-191.49-6.52Q-189.91-4.89-189.05-2.54Q-188.18-0.19-188.18 2.72L-188.18 2.72Q-188.18 5.65-189.05 8.00Q-189.91 10.35-191.49 12.01Q-193.08 13.66-195.32 14.55Q-197.57 15.44-200.33 15.44L-200.33 15.44Q-203.09 15.44-205.34 14.55Q-207.60 13.66-209.19 12.01Q-210.79 10.35-211.67 8.00Q-212.54 5.65-212.54 2.72L-212.54 2.72Q-212.54-0.19-211.67-2.54Q-210.79-4.89-209.19-6.52Q-207.60-8.15-205.34-9.04Q-203.09-9.93-200.33-9.93ZM-200.33 10.88L-200.33 10.88Q-197.25 10.88-195.78 8.81Q-194.30 6.75-194.30 2.77L-194.30 2.77Q-194.30-1.22-195.78-3.31Q-197.25-5.39-200.33-5.39L-200.33-5.39Q-203.45-5.39-204.93-3.29Q-206.42-1.19-206.42 2.77L-206.42 2.77Q-206.42 6.73-204.93 8.80Q-203.45 10.88-200.33 10.88Z"/><path xml:space="preserve" font-family="Lato" font-size="48" font-style="normal" font-weight="bold" style="stroke: none; stroke-width: 1; stroke-dasharray: none; stroke-linecap: butt; stroke-dashoffset: 0; stroke-linejoin: miter; stroke-miterlimit: 4; is-custom-font: none; font-file-url: none; fill: rgb(32,65,22); fill-rule: nonzero; opacity: 1; white-space: pre;" d="M-182.48-20.59L-176.55-20.59L-176.55 15.08L-182.48 15.08L-182.48-20.59Z"/><path xml:space="preserve" font-family="Lato" font-size="48" font-style="normal" font-weight="bold" style="stroke: none; stroke-width: 1; stroke-dasharray: none; stroke-linecap: butt; stroke-dashoffset: 0; stroke-linejoin: miter; stroke-miterlimit: 4; is-custom-font: none; font-file-url: none; fill: rgb(32,65,22); fill-rule: nonzero; opacity: 1; white-space: pre;" d="M-147.85-9.55L-157.61 15.08L-162.99 15.08L-172.78-9.55L-167.86-9.55Q-167.21-9.55-166.77-9.23Q-166.33-8.92-166.16-8.44L-166.16-8.44L-161.41 4.71Q-161.00 5.86-160.72 6.97Q-160.45 8.07-160.23 9.17L-160.23 9.17Q-160.01 8.07-159.74 6.97Q-159.46 5.86-159.03 4.71L-159.03 4.71L-154.16-8.44Q-153.99-8.92-153.56-9.23Q-153.13-9.55-152.53-9.55L-152.53-9.55L-147.85-9.55Z"/><path xml:space="preserve" font-family="Lato" font-size="48" font-style="normal" font-weight="bold" style="stroke: none; stroke-width: 1; stroke-dasharray: none; stroke-linecap: butt; stroke-dashoffset: 0; stroke-linejoin: miter; stroke-miterlimit: 4; is-custom-font: none; font-file-url: none; fill: rgb(32,65,22); fill-rule: nonzero; opacity: 1; white-space: pre;" d="M-135.15-9.93L-135.15-9.93Q-132.82-9.93-130.86-9.19Q-128.91-8.44-127.49-7.01Q-126.08-5.59-125.28-3.51Q-124.49-1.43-124.49 1.23L-124.49 1.23Q-124.49 1.90-124.55 2.35Q-124.61 2.79-124.77 3.04Q-124.92 3.29-125.19 3.40Q-125.45 3.51-125.86 3.51L-125.86 3.51L-141.08 3.51Q-140.81 7.30-139.04 9.08Q-137.26 10.85-134.33 10.85L-134.33 10.85Q-132.89 10.85-131.85 10.52Q-130.80 10.18-130.02 9.77Q-129.24 9.37-128.66 9.03Q-128.07 8.69-127.52 8.69L-127.52 8.69Q-127.16 8.69-126.89 8.84Q-126.63 8.98-126.44 9.25L-126.44 9.25L-124.71 11.41Q-125.69 12.56-126.92 13.34Q-128.14 14.12-129.47 14.59Q-130.80 15.05-132.18 15.25Q-133.56 15.44-134.86 15.44L-134.86 15.44Q-137.43 15.44-139.64 14.59Q-141.84 13.73-143.48 12.07Q-145.11 10.40-146.04 7.94Q-146.98 5.48-146.98 2.24L-146.98 2.24Q-146.98-0.28-146.16-2.50Q-145.35-4.72-143.82-6.37Q-142.30-8.01-140.10-8.97Q-137.91-9.93-135.15-9.93ZM-135.03-5.68L-135.03-5.68Q-137.62-5.68-139.08-4.22Q-140.55-2.75-140.96-0.07L-140.96-0.07L-129.82-0.07Q-129.82-1.22-130.13-2.24Q-130.44-3.26-131.09-4.03Q-131.74-4.79-132.72-5.24Q-133.71-5.68-135.03-5.68Z"/><path xml:space="preserve" font-family="Lato" font-size="48" font-style="normal" font-weight="bold" style="stroke: none; stroke-width: 1; stroke-dasharray: none; stroke-linecap: butt; stroke-dashoffset: 0; stroke-linejoin: miter; stroke-miterlimit: 4; is-custom-font: none; font-file-url: none; fill: rgb(32,65,22); fill-rule: nonzero; opacity: 1; white-space: pre;" d=""/><path xml:space="preserve" font-family="Lato" font-size="48" font-style="normal" font-weight="bold" style="stroke: none; stroke-width: 1; stroke-dasharray: none; stroke-linecap: butt; stroke-dashoffset: 0; stroke-linejoin: miter; stroke-miterlimit: 4; is-custom-font: none; font-file-url: none; fill: rgb(32,65,22); fill-rule: nonzero; opacity: 1; white-space: pre;" d="M-105.46 15.46L-105.46 15.46Q-108.65 15.46-110.38 13.65Q-112.10 11.84-112.10 8.65L-112.10 8.65L-112.10-5.11L-114.60-5.11Q-115.08-5.11-115.43-5.42Q-115.78-5.73-115.78-6.35L-115.78-6.35L-115.78-8.71L-111.82-9.35L-110.57-16.07Q-110.47-16.55-110.12-16.82Q-109.78-17.08-109.25-17.08L-109.25-17.08L-106.18-17.08L-106.18-9.33L-99.70-9.33L-99.70-5.11L-106.18-5.11L-106.18 8.24Q-106.18 9.39-105.60 10.04Q-105.02 10.69-104.06 10.69L-104.06 10.69Q-103.51 10.69-103.14 10.55Q-102.77 10.42-102.49 10.28Q-102.22 10.13-102.00 10.00Q-101.78 9.87-101.57 9.87L-101.57 9.87Q-101.30 9.87-101.14 10.00Q-100.97 10.13-100.78 10.40L-100.78 10.40L-99.00 13.28Q-100.30 14.36-101.98 14.91Q-103.66 15.46-105.46 15.46Z"/><path xml:space="preserve" font-family="Lato" font-size="48" font-style="normal" font-weight="bold" style="stroke: none; stroke-width: 1; stroke-dasharray: none; stroke-linecap: butt; stroke-dashoffset: 0; stroke-linejoin: miter; stroke-miterlimit: 4; is-custom-font: none; font-file-url: none; fill: rgb(32,65,22); fill-rule: nonzero; opacity: 1; white-space: pre;" d="M-89.56 15.08L-95.49 15.08L-95.49-20.59L-89.56-20.59L-89.56-6.88Q-88.12-8.25-86.40-9.09Q-84.67-9.93-82.34-9.93L-82.34-9.93Q-80.32-9.93-78.76-9.25Q-77.20-8.56-76.16-7.33Q-75.12-6.09-74.58-4.37Q-74.04-2.66-74.04-0.59L-74.04-0.59L-74.04 15.08L-79.96 15.08L-79.96-0.59Q-79.96-2.85-81.01-4.09Q-82.05-5.32-84.14-5.32L-84.14-5.32Q-85.68-5.32-87.02-4.63Q-88.36-3.93-89.56-2.73L-89.56-2.73L-89.56 15.08Z"/><path xml:space="preserve" font-family="Lato" font-size="48" font-style="normal" font-weight="bold" style="stroke: none; stroke-width: 1; stroke-dasharray: none; stroke-linecap: butt; stroke-dashoffset: 0; stroke-linejoin: miter; stroke-miterlimit: 4; is-custom-font: none; font-file-url: none; fill: rgb(32,65,22); fill-rule: nonzero; opacity: 1; white-space: pre;" d="M-67.13-9.55L-61.21-9.55L-61.21 15.08L-67.13 15.08L-67.13-9.55ZM-60.32-16.72L-60.32-16.72Q-60.32-15.95-60.63-15.28Q-60.94-14.61-61.46-14.11Q-61.97-13.60-62.67-13.30Q-63.37-13.00-64.16-13.00L-64.16-13.00Q-64.93-13.00-65.61-13.30Q-66.29-13.60-66.80-14.11Q-67.30-14.61-67.60-15.28Q-67.90-15.95-67.90-16.72L-67.90-16.72Q-67.90-17.51-67.60-18.21Q-67.30-18.91-66.80-19.41Q-66.29-19.91-65.61-20.21Q-64.93-20.51-64.16-20.51L-64.16-20.51Q-63.37-20.51-62.67-20.21Q-61.97-19.91-61.46-19.41Q-60.94-18.91-60.63-18.21Q-60.32-17.51-60.32-16.72Z"/><path xml:space="preserve" font-family="Lato" font-size="48" font-style="normal" font-weight="bold" style="stroke: none; stroke-width: 1; stroke-dasharray: none; stroke-linecap: butt; stroke-dashoffset: 0; stroke-linejoin: miter; stroke-miterlimit: 4; is-custom-font: none; font-file-url: none; fill: rgb(32,65,22); fill-rule: nonzero; opacity: 1; white-space: pre;" d="M-38.65-6.88L-39.99-4.75Q-40.23-4.36-40.49-4.21Q-40.76-4.05-41.17-4.05L-41.17-4.05Q-41.60-4.05-42.09-4.29Q-42.58-4.53-43.23-4.83Q-43.88-5.13-44.71-5.37Q-45.53-5.61-46.66-5.61L-46.66-5.61Q-48.41-5.61-49.42-4.87Q-50.43-4.12-50.43-2.92L-50.43-2.92Q-50.43-2.13-49.91-1.59Q-49.40-1.05-48.55-0.64Q-47.69-0.23-46.61 0.09Q-45.53 0.41-44.41 0.80Q-43.28 1.18-42.20 1.67Q-41.12 2.17-40.27 2.92Q-39.41 3.68-38.90 4.73Q-38.38 5.79-38.38 7.28L-38.38 7.28Q-38.38 9.05-39.03 10.55Q-39.68 12.05-40.93 13.15Q-42.17 14.24-44.01 14.85Q-45.85 15.46-48.22 15.46L-48.22 15.46Q-49.49 15.46-50.71 15.23Q-51.92 15.01-53.03 14.60Q-54.15 14.19-55.10 13.64Q-56.05 13.09-56.77 12.44L-56.77 12.44L-55.40 10.18Q-55.13 9.77-54.77 9.56Q-54.41 9.34-53.86 9.34L-53.86 9.34Q-53.31 9.34-52.82 9.65Q-52.33 9.97-51.68 10.33Q-51.03 10.69-50.15 11.00Q-49.28 11.31-47.93 11.31L-47.93 11.31Q-46.88 11.31-46.12 11.06Q-45.37 10.81-44.87 10.40Q-44.38 9.99-44.15 9.45Q-43.93 8.91-43.93 8.33L-43.93 8.33Q-43.93 7.47-44.44 6.92Q-44.96 6.37-45.81 5.96Q-46.66 5.55-47.75 5.23Q-48.85 4.90-49.99 4.52Q-51.13 4.13-52.22 3.62Q-53.31 3.10-54.16 2.31Q-55.01 1.52-55.53 0.37Q-56.05-0.79-56.05-2.42L-56.05-2.42Q-56.05-3.93-55.45-5.30Q-54.85-6.67-53.68-7.69Q-52.52-8.71-50.78-9.32Q-49.04-9.93-46.76-9.93L-46.76-9.93Q-44.21-9.93-42.13-9.09Q-40.04-8.25-38.65-6.88L-38.65-6.88Z"/><path xml:space="preserve" font-family="Lato" font-size="48" font-style="normal" font-weight="bold" style="stroke: none; stroke-width: 1; stroke-dasharray: none; stroke-linecap: butt; stroke-dashoffset: 0; stroke-linejoin: miter; stroke-miterlimit: 4; is-custom-font: none; font-file-url: none; fill: rgb(32,65,22); fill-rule: nonzero; opacity: 1; white-space: pre;" d=""/><path xml:space="preserve" font-family="Lato" font-size="48" font-style="normal" font-weight="bold" style="stroke: none; stroke-width: 1; stroke-dasharray: none; stroke-linecap: butt; stroke-dashoffset: 0; stroke-linejoin: miter; stroke-miterlimit: 4; is-custom-font: none; font-file-url: none; fill: rgb(32,65,22); fill-rule: nonzero; opacity: 1; white-space: pre;" d="M-21.22 23.12L-27.15 23.12L-27.15-9.55L-23.52-9.55Q-22.95-9.55-22.54-9.28Q-22.13-9.02-22.01-8.47L-22.01-8.47L-21.53-6.19Q-20.04-7.89-18.11-8.95Q-16.18-10.00-13.59-10.00L-13.59-10.00Q-11.57-10.00-9.90-9.16Q-8.23-8.32-7.02-6.73Q-5.81-5.13-5.15-2.79Q-4.49-0.45-4.49 2.57L-4.49 2.57Q-4.49 5.33-5.23 7.69Q-5.98 10.04-7.36 11.77Q-8.74 13.49-10.69 14.47Q-12.65 15.44-15.07 15.44L-15.07 15.44Q-17.16 15.44-18.61 14.80Q-20.07 14.17-21.22 13.04L-21.22 13.04L-21.22 23.12ZM-15.63-5.32L-15.63-5.32Q-17.47-5.32-18.78-4.54Q-20.09-3.76-21.22-2.35L-21.22-2.35L-21.22 8.69Q-20.21 9.94-19.02 10.43Q-17.83 10.93-16.47 10.93L-16.47 10.93Q-15.12 10.93-14.03 10.42Q-12.94 9.92-12.18 8.89Q-11.43 7.85-11.02 6.28Q-10.61 4.71-10.61 2.57L-10.61 2.57Q-10.61 0.41-10.96-1.09Q-11.31-2.59-11.95-3.52Q-12.60-4.46-13.53-4.89Q-14.45-5.32-15.63-5.32Z"/><path xml:space="preserve" font-family="Lato" font-size="48" font-style="normal" font-weight="bold" style="stroke: none; stroke-width: 1; stroke-dasharray: none; stroke-linecap: butt; stroke-dashoffset: 0; stroke-linejoin: miter; stroke-miterlimit: 4; is-custom-font: none; font-file-url: none; fill: rgb(32,65,22); fill-rule: nonzero; opacity: 1; white-space: pre;" d="M5.90 15.08L-0.03 15.08L-0.03-9.55L3.45-9.55Q4.37-9.55 4.73-9.21Q5.09-8.87 5.21-8.06L5.21-8.06L5.57-5.08Q6.89-7.36 8.66-8.68Q10.44-10.00 12.65-10.00L12.65-10.00Q14.47-10.00 15.67-9.16L15.67-9.16L14.90-4.72Q14.83-4.29 14.59-4.11Q14.35-3.93 13.94-3.93L13.94-3.93Q13.58-3.93 12.96-4.10Q12.33-4.27 11.30-4.27L11.30-4.27Q9.45-4.27 8.13-3.25Q6.81-2.23 5.90-0.26L5.90-0.26L5.90 15.08Z"/><path xml:space="preserve" font-family="Lato" font-size="48" font-style="normal" font-weight="bold" style="stroke: none; stroke-width: 1; stroke-dasharray: none; stroke-linecap: butt; stroke-dashoffset: 0; stroke-linejoin: miter; stroke-miterlimit: 4; is-custom-font: none; font-file-url: none; fill: rgb(32,65,22); fill-rule: nonzero; opacity: 1; white-space: pre;" d="M30.45-9.93L30.45-9.93Q33.21-9.93 35.46-9.04Q37.70-8.15 39.29-6.52Q40.87-4.89 41.73-2.54Q42.60-0.19 42.60 2.72L42.60 2.72Q42.60 5.65 41.73 8.00Q40.87 10.35 39.29 12.01Q37.70 13.66 35.46 14.55Q33.21 15.44 30.45 15.44L30.45 15.44Q27.69 15.44 25.44 14.55Q23.18 13.66 21.59 12.01Q19.99 10.35 19.11 8.00Q18.24 5.65 18.24 2.72L18.24 2.72Q18.24-0.19 19.11-2.54Q19.99-4.89 21.59-6.52Q23.18-8.15 25.44-9.04Q27.69-9.93 30.45-9.93ZM30.45 10.88L30.45 10.88Q33.53 10.88 35.00 8.81Q36.48 6.75 36.48 2.77L36.48 2.77Q36.48-1.22 35.00-3.31Q33.53-5.39 30.45-5.39L30.45-5.39Q27.33-5.39 25.85-3.29Q24.36-1.19 24.36 2.77L24.36 2.77Q24.36 6.73 25.85 8.80Q27.33 10.88 30.45 10.88Z"/><path xml:space="preserve" font-family="Lato" font-size="48" font-style="normal" font-weight="bold" style="stroke: none; stroke-width: 1; stroke-dasharray: none; stroke-linecap: butt; stroke-dashoffset: 0; stroke-linejoin: miter; stroke-miterlimit: 4; is-custom-font: none; font-file-url: none; fill: rgb(32,65,22); fill-rule: nonzero; opacity: 1; white-space: pre;" d="M49.85 15.08L45.94 15.08L45.94-20.59L51.87-20.59L51.87-6.52Q53.33-8.08 55.18-9.01Q57.03-9.93 59.50-9.93L59.50-9.93Q61.52-9.93 63.18-9.10Q64.85-8.27 66.06-6.69Q67.28-5.11 67.94-2.78Q68.60-0.45 68.60 2.57L68.60 2.57Q68.60 5.33 67.85 7.69Q67.11 10.04 65.73 11.77Q64.35 13.49 62.39 14.47Q60.44 15.44 58.01 15.44L58.01 15.44Q56.88 15.44 55.95 15.21Q55.01 14.98 54.24 14.57Q53.48 14.17 52.82 13.58Q52.16 12.99 51.56 12.27L51.56 12.27L51.29 13.93Q51.15 14.55 50.80 14.81Q50.45 15.08 49.85 15.08L49.85 15.08ZM57.46-5.32L57.46-5.32Q55.61-5.32 54.30-4.54Q53.00-3.76 51.87-2.35L51.87-2.35L51.87 8.69Q52.88 9.94 54.06 10.43Q55.25 10.93 56.64 10.93L56.64 10.93Q57.99 10.93 59.07 10.42Q60.15 9.92 60.90 8.89Q61.66 7.85 62.07 6.28Q62.48 4.71 62.48 2.57L62.48 2.57Q62.48 0.41 62.13-1.09Q61.78-2.59 61.13-3.52Q60.48-4.46 59.56-4.89Q58.64-5.32 57.46-5.32Z"/><path xml:space="preserve" font-family="Lato" font-size="48" font-style="normal" font-weight="bold" style="stroke: none; stroke-width: 1; stroke-dasharray: none; stroke-linecap: butt; stroke-dashoffset: 0; stroke-linejoin: miter; stroke-miterlimit: 4; is-custom-font: none; font-file-url: none; fill: rgb(32,65,22); fill-rule: nonzero; opacity: 1; white-space: pre;" d="M74.37-20.59L80.30-20.59L80.30 15.08L74.37 15.08L74.37-20.59Z"/><path xml:space="preserve" font-family="Lato" font-size="48" font-style="normal" font-weight="bold" style="stroke: none; stroke-width: 1; stroke-dasharray: none; stroke-linecap: butt; stroke-dashoffset: 0; stroke-linejoin: miter; stroke-miterlimit: 4; is-custom-font: none; font-file-url: none; fill: rgb(32,65,22); fill-rule: nonzero; opacity: 1; white-space: pre;" d="M97.13-9.93L97.13-9.93Q99.45-9.93 101.41-9.19Q103.37-8.44 104.78-7.01Q106.20-5.59 106.99-3.51Q107.78-1.43 107.78 1.23L107.78 1.23Q107.78 1.90 107.72 2.35Q107.66 2.79 107.51 3.04Q107.35 3.29 107.09 3.40Q106.82 3.51 106.41 3.51L106.41 3.51L91.20 3.51Q91.46 7.30 93.24 9.08Q95.01 10.85 97.94 10.85L97.94 10.85Q99.38 10.85 100.43 10.52Q101.47 10.18 102.25 9.77Q103.03 9.37 103.62 9.03Q104.21 8.69 104.76 8.69L104.76 8.69Q105.12 8.69 105.38 8.84Q105.65 8.98 105.84 9.25L105.84 9.25L107.57 11.41Q106.58 12.56 105.36 13.34Q104.13 14.12 102.80 14.59Q101.47 15.05 100.09 15.25Q98.71 15.44 97.41 15.44L97.41 15.44Q94.85 15.44 92.64 14.59Q90.43 13.73 88.80 12.07Q87.17 10.40 86.23 7.94Q85.29 5.48 85.29 2.24L85.29 2.24Q85.29-0.28 86.11-2.50Q86.93-4.72 88.45-6.37Q89.97-8.01 92.17-8.97Q94.37-9.93 97.13-9.93ZM97.25-5.68L97.25-5.68Q94.65-5.68 93.19-4.22Q91.73-2.75 91.32-0.07L91.32-0.07L102.45-0.07Q102.45-1.22 102.14-2.24Q101.83-3.26 101.18-4.03Q100.53-4.79 99.55-5.24Q98.57-5.68 97.25-5.68Z"/><path xml:space="preserve" font-family="Lato" font-size="48" font-style="normal" font-weight="bold" style="stroke: none; stroke-width: 1; stroke-dasharray: none; stroke-linecap: butt; stroke-dashoffset: 0; stroke-linejoin: miter; stroke-miterlimit: 4; is-custom-font: none; font-file-url: none; fill: rgb(32,65,22); fill-rule: nonzero; opacity: 1; white-space: pre;" d="M118.65 15.08L112.73 15.08L112.73-9.55L116.35-9.55Q117.50-9.55 117.86-8.47L117.86-8.47L118.25-6.64Q118.89-7.36 119.60-7.96Q120.31-8.56 121.11-8.99Q121.92-9.43 122.84-9.68Q123.77-9.93 124.87-9.93L124.87-9.93Q127.20-9.93 128.70-8.67Q130.20-7.41 130.94-5.32L130.94-5.32Q131.52-6.55 132.38-7.42Q133.25-8.30 134.28-8.85Q135.31-9.40 136.47-9.67Q137.64-9.93 138.81-9.93L138.81-9.93Q140.85-9.93 142.44-9.31Q144.02-8.68 145.10-7.48Q146.18-6.28 146.75-4.55Q147.31-2.83 147.31-0.59L147.31-0.59L147.31 15.08L141.38 15.08L141.38-0.59Q141.38-2.95 140.35-4.13Q139.32-5.32 137.33-5.32L137.33-5.32Q136.41-5.32 135.63-5.01Q134.85-4.70 134.27-4.11Q133.68-3.52 133.34-2.63Q133.01-1.75 133.01-0.59L133.01-0.59L133.01 15.08L127.05 15.08L127.05-0.59Q127.05-3.07 126.06-4.19Q125.06-5.32 123.12-5.32L123.12-5.32Q121.85-5.32 120.73-4.69Q119.61-4.05 118.65-2.95L118.65-2.95L118.65 15.08Z"/><path xml:space="preserve" font-family="Lato" font-size="48" font-style="normal" font-weight="bold" style="stroke: none; stroke-width: 1; stroke-dasharray: none; stroke-linecap: butt; stroke-dashoffset: 0; stroke-linejoin: miter; stroke-miterlimit: 4; is-custom-font: none; font-file-url: none; fill: rgb(32,65,22); fill-rule: nonzero; opacity: 1; white-space: pre;" d=""/><path xml:space="preserve" font-family="Lato" font-size="48" font-style="normal" font-weight="bold" style="stroke: none; stroke-width: 1; stroke-dasharray: none; stroke-linecap: butt; stroke-dashoffset: 0; stroke-linejoin: miter; stroke-miterlimit: 4; is-custom-font: none; font-file-url: none; fill: rgb(32,65,22); fill-rule: nonzero; opacity: 1; white-space: pre;" d="M166.85 15.46L166.85 15.46Q163.66 15.46 161.93 13.65Q160.20 11.84 160.20 8.65L160.20 8.65L160.20-5.11L157.70-5.11Q157.22-5.11 156.88-5.42Q156.53-5.73 156.53-6.35L156.53-6.35L156.53-8.71L160.49-9.35L161.74-16.07Q161.83-16.55 162.18-16.82Q162.53-17.08 163.06-17.08L163.06-17.08L166.13-17.08L166.13-9.33L172.61-9.33L172.61-5.11L166.13-5.11L166.13 8.24Q166.13 9.39 166.70 10.04Q167.28 10.69 168.24 10.69L168.24 10.69Q168.79 10.69 169.16 10.55Q169.54 10.42 169.81 10.28Q170.09 10.13 170.30 10.00Q170.52 9.87 170.74 9.87L170.74 9.87Q171.00 9.87 171.17 10.00Q171.34 10.13 171.53 10.40L171.53 10.40L173.30 13.28Q172.01 14.36 170.33 14.91Q168.65 15.46 166.85 15.46Z"/><path xml:space="preserve" font-family="Lato" font-size="48" font-style="normal" font-weight="bold" style="stroke: none; stroke-width: 1; stroke-dasharray: none; stroke-linecap: butt; stroke-dashoffset: 0; stroke-linejoin: miter; stroke-miterlimit: 4; is-custom-font: none; font-file-url: none; fill: rgb(32,65,22); fill-rule: nonzero; opacity: 1; white-space: pre;" d="M187.80-9.93L187.80-9.93Q190.56-9.93 192.80-9.04Q195.05-8.15 196.63-6.52Q198.22-4.89 199.08-2.54Q199.94-0.19 199.94 2.72L199.94 2.72Q199.94 5.65 199.08 8.00Q198.22 10.35 196.63 12.01Q195.05 13.66 192.80 14.55Q190.56 15.44 187.80 15.44L187.80 15.44Q185.04 15.44 182.78 14.55Q180.53 13.66 178.93 12.01Q177.34 10.35 176.46 8.00Q175.58 5.65 175.58 2.72L175.58 2.72Q175.58-0.19 176.46-2.54Q177.34-4.89 178.93-6.52Q180.53-8.15 182.78-9.04Q185.04-9.93 187.80-9.93ZM187.80 10.88L187.80 10.88Q190.87 10.88 192.35 8.81Q193.82 6.75 193.82 2.77L193.82 2.77Q193.82-1.22 192.35-3.31Q190.87-5.39 187.80-5.39L187.80-5.39Q184.68-5.39 183.19-3.29Q181.70-1.19 181.70 2.77L181.70 2.77Q181.70 6.73 183.19 8.80Q184.68 10.88 187.80 10.88Z"/><path xml:space="preserve" font-family="Lato" font-size="48" font-style="normal" font-weight="bold" style="stroke: none; stroke-width: 1; stroke-dasharray: none; stroke-linecap: butt; stroke-dashoffset: 0; stroke-linejoin: miter; stroke-miterlimit: 4; is-custom-font: none; font-file-url: none; fill: rgb(32,65,22); fill-rule: nonzero; opacity: 1; white-space: pre;" d="M213.12-9.98L213.12-9.98Q214.70-9.98 216.10-9.65Q217.49-9.33 218.64-8.71L218.64-8.71L225.72-8.71L225.72-6.50Q225.72-5.95 225.43-5.63Q225.14-5.32 224.45-5.20L224.45-5.20L222.24-4.79Q222.48-4.17 222.61-3.47Q222.74-2.78 222.74-2.01L222.74-2.01Q222.74-0.19 222.01 1.29Q221.28 2.77 220.00 3.80Q218.71 4.83 216.95 5.39Q215.18 5.96 213.12 5.96L213.12 5.96Q211.73 5.96 210.41 5.69L210.41 5.69Q209.26 6.39 209.26 7.25L209.26 7.25Q209.26 8.00 209.94 8.35Q210.62 8.69 211.74 8.84Q212.86 8.98 214.27 9.02Q215.69 9.05 217.18 9.17Q218.66 9.29 220.08 9.59Q221.50 9.89 222.61 10.54Q223.73 11.19 224.41 12.31Q225.10 13.42 225.10 15.17L225.10 15.17Q225.10 16.81 224.29 18.34Q223.49 19.88 221.96 21.08Q220.44 22.28 218.23 23.01Q216.02 23.74 213.19 23.74L213.19 23.74Q210.38 23.74 208.32 23.20Q206.26 22.66 204.90 21.76Q203.54 20.86 202.87 19.69Q202.20 18.51 202.20 17.24L202.20 17.24Q202.20 15.51 203.26 14.33Q204.31 13.16 206.18 12.46L206.18 12.46Q205.27 11.96 204.72 11.12Q204.17 10.28 204.17 8.93L204.17 8.93Q204.17 8.38 204.36 7.79Q204.55 7.21 204.95 6.63Q205.34 6.05 205.94 5.54Q206.54 5.02 207.36 4.61L207.36 4.61Q205.49 3.61 204.42 1.93Q203.35 0.25 203.35-2.01L203.35-2.01Q203.35-3.83 204.08-5.31Q204.82-6.79 206.12-7.83Q207.43-8.87 209.22-9.43Q211.01-9.98 213.12-9.98ZM219.62 16.18L219.62 16.18Q219.62 15.46 219.19 15.01Q218.76 14.55 218.02 14.30Q217.27 14.05 216.28 13.93Q215.28 13.81 214.16 13.75Q213.05 13.69 211.86 13.63Q210.67 13.57 209.57 13.42L209.57 13.42Q208.56 13.97 207.95 14.73Q207.34 15.49 207.34 16.47L207.34 16.47Q207.34 17.12 207.66 17.68Q207.98 18.25 208.69 18.65Q209.40 19.06 210.53 19.29Q211.66 19.52 213.29 19.52L213.29 19.52Q214.94 19.52 216.14 19.27Q217.34 19.01 218.12 18.57Q218.90 18.13 219.26 17.51Q219.62 16.90 219.62 16.18ZM213.12 2.17L213.12 2.17Q214.22 2.17 215.04 1.87Q215.86 1.57 216.40 1.04Q216.94 0.51 217.21-0.23Q217.49-0.98 217.49-1.87L217.49-1.87Q217.49-3.69 216.40-4.76Q215.30-5.83 213.12-5.83L213.12-5.83Q210.94-5.83 209.84-4.76Q208.75-3.69 208.75-1.87L208.75-1.87Q208.75-1.00 209.03-0.26Q209.30 0.49 209.84 1.03Q210.38 1.57 211.21 1.87Q212.04 2.17 213.12 2.17Z"/><path xml:space="preserve" font-family="Lato" font-size="48" font-style="normal" font-weight="bold" style="stroke: none; stroke-width: 1; stroke-dasharray: none; stroke-linecap: butt; stroke-dashoffset: 0; stroke-linejoin: miter; stroke-miterlimit: 4; is-custom-font: none; font-file-url: none; fill: rgb(32,65,22); fill-rule: nonzero; opacity: 1; white-space: pre;" d="M239.98-9.93L239.98-9.93Q242.31-9.93 244.26-9.19Q246.22-8.44 247.64-7.01Q249.05-5.59 249.84-3.51Q250.64-1.43 250.64 1.23L250.64 1.23Q250.64 1.90 250.58 2.35Q250.52 2.79 250.36 3.04Q250.20 3.29 249.94 3.40Q249.68 3.51 249.27 3.51L249.27 3.51L234.05 3.51Q234.32 7.30 236.09 9.08Q237.87 10.85 240.80 10.85L240.80 10.85Q242.24 10.85 243.28 10.52Q244.32 10.18 245.10 9.77Q245.88 9.37 246.47 9.03Q247.06 8.69 247.61 8.69L247.61 8.69Q247.97 8.69 248.24 8.84Q248.50 8.98 248.69 9.25L248.69 9.25L250.42 11.41Q249.44 12.56 248.21 13.34Q246.99 14.12 245.66 14.59Q244.32 15.05 242.94 15.25Q241.56 15.44 240.27 15.44L240.27 15.44Q237.70 15.44 235.49 14.59Q233.28 13.73 231.65 12.07Q230.02 10.40 229.08 7.94Q228.15 5.48 228.15 2.24L228.15 2.24Q228.15-0.28 228.96-2.50Q229.78-4.72 231.30-6.37Q232.83-8.01 235.02-8.97Q237.22-9.93 239.98-9.93ZM240.10-5.68L240.10-5.68Q237.51-5.68 236.04-4.22Q234.58-2.75 234.17-0.07L234.17-0.07L245.31-0.07Q245.31-1.22 245.00-2.24Q244.68-3.26 244.04-4.03Q243.39-4.79 242.40-5.24Q241.42-5.68 240.10-5.68Z"/><path xml:space="preserve" font-family="Lato" font-size="48" font-style="normal" font-weight="bold" style="stroke: none; stroke-width: 1; stroke-dasharray: none; stroke-linecap: butt; stroke-dashoffset: 0; stroke-linejoin: miter; stroke-miterlimit: 4; is-custom-font: none; font-file-url: none; fill: rgb(32,65,22); fill-rule: nonzero; opacity: 1; white-space: pre;" d="M263.67 15.46L263.67 15.46Q260.48 15.46 258.75 13.65Q257.02 11.84 257.02 8.65L257.02 8.65L257.02-5.11L254.52-5.11Q254.04-5.11 253.70-5.42Q253.35-5.73 253.35-6.35L253.35-6.35L253.35-8.71L257.31-9.35L258.56-16.07Q258.65-16.55 259.00-16.82Q259.35-17.08 259.88-17.08L259.88-17.08L262.95-17.08L262.95-9.33L269.43-9.33L269.43-5.11L262.95-5.11L262.95 8.24Q262.95 9.39 263.52 10.04Q264.10 10.69 265.06 10.69L265.06 10.69Q265.61 10.69 265.98 10.55Q266.36 10.42 266.63 10.28Q266.91 10.13 267.12 10.00Q267.34 9.87 267.56 9.87L267.56 9.87Q267.82 9.87 267.99 10.00Q268.16 10.13 268.35 10.40L268.35 10.40L270.12 13.28Q268.83 14.36 267.15 14.91Q265.47 15.46 263.67 15.46Z"/><path xml:space="preserve" font-family="Lato" font-size="48" font-style="normal" font-weight="bold" style="stroke: none; stroke-width: 1; stroke-dasharray: none; stroke-linecap: butt; stroke-dashoffset: 0; stroke-linejoin: miter; stroke-miterlimit: 4; is-custom-font: none; font-file-url: none; fill: rgb(32,65,22); fill-rule: nonzero; opacity: 1; white-space: pre;" d="M279.56 15.08L273.63 15.08L273.63-20.59L279.56-20.59L279.56-6.88Q281.00-8.25 282.73-9.09Q284.46-9.93 286.78-9.93L286.78-9.93Q288.80-9.93 290.36-9.25Q291.92-8.56 292.96-7.33Q294.01-6.09 294.55-4.37Q295.09-2.66 295.09-0.59L295.09-0.59L295.09 15.08L289.16 15.08L289.16-0.59Q289.16-2.85 288.12-4.09Q287.07-5.32 284.98-5.32L284.98-5.32Q283.45-5.32 282.10-4.63Q280.76-3.93 279.56-2.73L279.56-2.73L279.56 15.08Z"/><path xml:space="preserve" font-family="Lato" font-size="48" font-style="normal" font-weight="bold" style="stroke: none; stroke-width: 1; stroke-dasharray: none; stroke-linecap: butt; stroke-dashoffset: 0; stroke-linejoin: miter; stroke-miterlimit: 4; is-custom-font: none; font-file-url: none; fill: rgb(32,65,22); fill-rule: nonzero; opacity: 1; white-space: pre;" d="M311.60-9.93L311.60-9.93Q313.92-9.93 315.88-9.19Q317.84-8.44 319.25-7.01Q320.67-5.59 321.46-3.51Q322.25-1.43 322.25 1.23L322.25 1.23Q322.25 1.90 322.19 2.35Q322.13 2.79 321.98 3.04Q321.82 3.29 321.56 3.40Q321.29 3.51 320.88 3.51L320.88 3.51L305.67 3.51Q305.93 7.30 307.71 9.08Q309.48 10.85 312.41 10.85L312.41 10.85Q313.85 10.85 314.90 10.52Q315.94 10.18 316.72 9.77Q317.50 9.37 318.09 9.03Q318.68 8.69 319.23 8.69L319.23 8.69Q319.59 8.69 319.85 8.84Q320.12 8.98 320.31 9.25L320.31 9.25L322.04 11.41Q321.05 12.56 319.83 13.34Q318.60 14.12 317.27 14.59Q315.94 15.05 314.56 15.25Q313.18 15.44 311.88 15.44L311.88 15.44Q309.32 15.44 307.11 14.59Q304.90 13.73 303.27 12.07Q301.64 10.40 300.70 7.94Q299.76 5.48 299.76 2.24L299.76 2.24Q299.76-0.28 300.58-2.50Q301.40-4.72 302.92-6.37Q304.44-8.01 306.64-8.97Q308.84-9.93 311.60-9.93ZM311.72-5.68L311.72-5.68Q309.12-5.68 307.66-4.22Q306.20-2.75 305.79-0.07L305.79-0.07L316.92-0.07Q316.92-1.22 316.61-2.24Q316.30-3.26 315.65-4.03Q315.00-4.79 314.02-5.24Q313.04-5.68 311.72-5.68Z"/><path xml:space="preserve" font-family="Lato" font-size="48" font-style="normal" font-weight="bold" style="stroke: none; stroke-width: 1; stroke-dasharray: none; stroke-linecap: butt; stroke-dashoffset: 0; stroke-linejoin: miter; stroke-miterlimit: 4; is-custom-font: none; font-file-url: none; fill: rgb(32,65,22); fill-rule: nonzero; opacity: 1; white-space: pre;" d="M333.12 15.08L327.20 15.08L327.20-9.55L330.68-9.55Q331.59-9.55 331.95-9.21Q332.31-8.87 332.43-8.06L332.43-8.06L332.79-5.08Q334.11-7.36 335.88-8.68Q337.66-10.00 339.87-10.00L339.87-10.00Q341.69-10.00 342.89-9.16L342.89-9.16L342.12-4.72Q342.05-4.29 341.81-4.11Q341.57-3.93 341.16-3.93L341.16-3.93Q340.80-3.93 340.18-4.10Q339.56-4.27 338.52-4.27L338.52-4.27Q336.68-4.27 335.36-3.25Q334.04-2.23 333.12-0.26L333.12-0.26L333.12 15.08Z"/></g>
</svg>