<svg id="visual" viewBox="0 0 900 600" width="900" height="600" xmlns="http://www.w3.org/2000/svg" xmlns:xlink="http://www.w3.org/1999/xlink" version="1.1"><path d="M0 139L13.7 131C27.3 123 54.7 107 82 125C109.3 143 136.7 195 163.8 196C191 197 218 147 245.2 141C272.3 135 299.7 173 327 176C354.3 179 381.7 147 409 128C436.3 109 463.7 103 491 120C518.3 137 545.7 177 573 183C600.3 189 627.7 161 654.8 165C682 169 709 205 736.2 223C763.3 241 790.7 241 818 231C845.3 221 872.7 201 886.3 191L900 181L900 0L886.3 0C872.7 0 845.3 0 818 0C790.7 0 763.3 0 736.2 0C709 0 682 0 654.8 0C627.7 0 600.3 0 573 0C545.7 0 518.3 0 491 0C463.7 0 436.3 0 409 0C381.7 0 354.3 0 327 0C299.7 0 272.3 0 245.2 0C218 0 191 0 163.8 0C136.7 0 109.3 0 82 0C54.7 0 27.3 0 13.7 0L0 0Z" fill="#ffffca"></path><path d="M0 253L13.7 241C27.3 229 54.7 205 82 216C109.3 227 136.7 273 163.8 271C191 269 218 219 245.2 216C272.3 213 299.7 257 327 255C354.3 253 381.7 205 409 182C436.3 159 463.7 161 491 177C518.3 193 545.7 223 573 237C600.3 251 627.7 249 654.8 258C682 267 709 287 736.2 299C763.3 311 790.7 315 818 311C845.3 307 872.7 295 886.3 289L900 283L900 179L886.3 189C872.7 199 845.3 219 818 229C790.7 239 763.3 239 736.2 221C709 203 682 167 654.8 163C627.7 159 600.3 187 573 181C545.7 175 518.3 135 491 118C463.7 101 436.3 107 409 126C381.7 145 354.3 177 327 174C299.7 171 272.3 133 245.2 139C218 145 191 195 163.8 194C136.7 193 109.3 141 82 123C54.7 105 27.3 121 13.7 129L0 137Z" fill="#ffffc0"></path><path d="M0 295L13.7 290C27.3 285 54.7 275 82 294C109.3 313 136.7 361 163.8 365C191 369 218 329 245.2 325C272.3 321 299.7 353 327 349C354.3 345 381.7 305 409 283C436.3 261 463.7 257 491 263C518.3 269 545.7 285 573 300C600.3 315 627.7 329 654.8 340C682 351 709 359 736.2 363C763.3 367 790.7 367 818 370C845.3 373 872.7 379 886.3 382L900 385L900 281L886.3 287C872.7 293 845.3 305 818 309C790.7 313 763.3 309 736.2 297C709 285 682 265 654.8 256C627.7 247 600.3 249 573 235C545.7 221 518.3 191 491 175C463.7 159 436.3 157 409 180C381.7 203 354.3 251 327 253C299.7 255 272.3 211 245.2 214C218 217 191 267 163.8 269C136.7 271 109.3 225 82 214C54.7 203 27.3 227 13.7 239L0 251Z" fill="#ffffb6"></path><path d="M0 481L13.7 480C27.3 479 54.7 477 82 478C109.3 479 136.7 483 163.8 481C191 479 218 471 245.2 473C272.3 475 299.7 487 327 493C354.3 499 381.7 499 409 488C436.3 477 463.7 455 491 448C518.3 441 545.7 449 573 457C600.3 465 627.7 473 654.8 481C682 489 709 497 736.2 493C763.3 489 790.7 473 818 464C845.3 455 872.7 453 886.3 452L900 451L900 383L886.3 380C872.7 377 845.3 371 818 368C790.7 365 763.3 365 736.2 361C709 357 682 349 654.8 338C627.7 327 600.3 313 573 298C545.7 283 518.3 267 491 261C463.7 255 436.3 259 409 281C381.7 303 354.3 343 327 347C299.7 351 272.3 319 245.2 323C218 327 191 367 163.8 363C136.7 359 109.3 311 82 292C54.7 273 27.3 283 13.7 288L0 293Z" fill="#ffffac"></path><path d="M0 541L13.7 542C27.3 543 54.7 545 82 545C109.3 545 136.7 543 163.8 540C191 537 218 533 245.2 531C272.3 529 299.7 529 327 536C354.3 543 381.7 557 409 555C436.3 553 463.7 535 491 530C518.3 525 545.7 533 573 539C600.3 545 627.7 549 654.8 552C682 555 709 557 736.2 553C763.3 549 790.7 539 818 534C845.3 529 872.7 529 886.3 529L900 529L900 449L886.3 450C872.7 451 845.3 453 818 462C790.7 471 763.3 487 736.2 491C709 495 682 487 654.8 479C627.7 471 600.3 463 573 455C545.7 447 518.3 439 491 446C463.7 453 436.3 475 409 486C381.7 497 354.3 497 327 491C299.7 485 272.3 473 245.2 471C218 469 191 477 163.8 479C136.7 481 109.3 477 82 476C54.7 475 27.3 477 13.7 478L0 479Z" fill="#ffffa2"></path><path d="M0 601L13.7 601C27.3 601 54.7 601 82 601C109.3 601 136.7 601 163.8 601C191 601 218 601 245.2 601C272.3 601 299.7 601 327 601C354.3 601 381.7 601 409 601C436.3 601 463.7 601 491 601C518.3 601 545.7 601 573 601C600.3 601 627.7 601 654.8 601C682 601 709 601 736.2 601C763.3 601 790.7 601 818 601C845.3 601 872.7 601 886.3 601L900 601L900 527L886.3 527C872.7 527 845.3 527 818 532C790.7 537 763.3 547 736.2 551C709 555 682 553 654.8 550C627.7 547 600.3 543 573 537C545.7 531 518.3 523 491 528C463.7 533 436.3 551 409 553C381.7 555 354.3 541 327 534C299.7 527 272.3 527 245.2 529C218 531 191 535 163.8 538C136.7 541 109.3 543 82 543C54.7 543 27.3 541 13.7 540L0 539Z" fill="#ffff97"></path></svg>