<svg xmlns="http://www.w3.org/2000/svg" xmlns:xlink="http://www.w3.org/1999/xlink" version="1.1" width="1000" height="1000" viewBox="0 0 1000 1000" xml:space="preserve">
<desc>Created with Fabric.js 3.5.0</desc>
<defs>
</defs>
<rect x="0" y="0" width="100%" height="100%" fill="rgba(255,255,255,0)"/>
<g transform="matrix(0.4505 0 0 0.4505 176.1782 714.799)" id="508918">
<g style="" vector-effect="non-scaling-stroke">
		<g transform="matrix(1 0 0 1 -269.4589 -87.1293)">
<path style="stroke: none; stroke-width: 1; stroke-dasharray: none; stroke-linecap: butt; stroke-dashoffset: 0; stroke-linejoin: miter; stroke-miterlimit: 4; is-custom-font: none; font-file-url: none; fill: rgb(32,65,22); fill-rule: nonzero; opacity: 1;" transform=" translate(-330.5411, -362.8707)" d="M 208.9274 415.33663 c 0 -67.16541 54.44833 -226.54561 121.61374 -226.54561 s 121.61374 159.3802 121.61374 226.54561 a 121.61374 121.61374 0 0 1 -243.22748 0 Z" stroke-linecap="round"/>
</g>
		<g transform="matrix(1 0 0 1 -269.4589 50.5669)">
<path style="stroke: none; stroke-width: 1; stroke-dasharray: none; stroke-linecap: butt; stroke-dashoffset: 0; stroke-linejoin: miter; stroke-miterlimit: 4; is-custom-font: none; font-file-url: none; fill: rgb(63,61,86); fill-rule: nonzero; opacity: 1;" transform=" translate(-330.5411, -500.5669)" d="M 330.5411 711.209 a 1 1 0 0 1 -1 -1 V 290.9248 a 1 1 0 0 1 2 0 V 710.209 A 1 1 0 0 1 330.5411 711.209 Z" stroke-linecap="round"/>
</g>
		<g transform="matrix(1 0 0 1 -293.5284 -103.1988)">
<path style="stroke: none; stroke-width: 1; stroke-dasharray: none; stroke-linecap: butt; stroke-dashoffset: 0; stroke-linejoin: miter; stroke-miterlimit: 4; is-custom-font: none; font-file-url: none; fill: rgb(63,61,86); fill-rule: nonzero; opacity: 1;" transform=" translate(-306.4716, -346.8012)" d="M 330.5411 371.87061 a 0.99683 0.99683 0 0 1 -0.70715 -0.293 l -48.13453 -48.13428 a 1 1 0 1 1 1.41431 -1.41406 l 48.13452 48.13427 a 1 1 0 0 1 -0.70715 1.707 Z" stroke-linecap="round"/>
</g>
		<g transform="matrix(1 0 0 1 -229.1517 -36.1068)">
<path style="stroke: none; stroke-width: 1; stroke-dasharray: none; stroke-linecap: butt; stroke-dashoffset: 0; stroke-linejoin: miter; stroke-miterlimit: 4; is-custom-font: none; font-file-url: none; fill: rgb(63,61,86); fill-rule: nonzero; opacity: 1;" transform=" translate(-370.8484, -413.8933)" d="M 330.5411 455.20068 a 1 1 0 0 1 -0.70715 -1.707 l 80.61 -80.61035 a 1 1 0 1 1 1.41431 1.41406 l -80.61 80.61035 A 0.997 0.997 0 0 1 330.5411 455.20068 Z" stroke-linecap="round"/>
</g>
		<g transform="matrix(1 0 0 1 -71.8959 9.3811)">
<path style="stroke: none; stroke-width: 1; stroke-dasharray: none; stroke-linecap: butt; stroke-dashoffset: 0; stroke-linejoin: miter; stroke-miterlimit: 4; is-custom-font: none; font-file-url: none; fill: rgb(230,230,230); fill-rule: nonzero; opacity: 1;" transform=" translate(-528.1041, -459.3811)" d="M 440.65585 497.082 c 0 -48.26367 39.15191 -162.791 87.44824 -162.791 s 87.44824 114.5273 87.44824 162.791 a 87.44826 87.44826 0 0 1 -174.89648 0 Z" stroke-linecap="round"/>
</g>
		<g transform="matrix(1 0 0 1 -71.8959 108.3277)">
<path style="stroke: none; stroke-width: 1; stroke-dasharray: none; stroke-linecap: butt; stroke-dashoffset: 0; stroke-linejoin: miter; stroke-miterlimit: 4; is-custom-font: none; font-file-url: none; fill: rgb(63,61,86); fill-rule: nonzero; opacity: 1;" transform=" translate(-528.1041, -558.3278)" d="M 528.10406 709.68972 a 0.7188 0.7188 0 0 1 -0.71906 -0.71858 V 407.68224 a 0.71907 0.71907 0 0 1 1.43813 0 v 301.2889 A 0.71881 0.71881 0 0 1 528.10406 709.68972 Z" stroke-linecap="round"/>
</g>
		<g transform="matrix(1 0 0 1 -89.2018 -2.1647)">
<path style="stroke: none; stroke-width: 1; stroke-dasharray: none; stroke-linecap: butt; stroke-dashoffset: 0; stroke-linejoin: miter; stroke-miterlimit: 4; is-custom-font: none; font-file-url: none; fill: rgb(63,61,86); fill-rule: nonzero; opacity: 1;" transform=" translate(-510.7982, -447.8354)" d="M 528.10406 465.84821 a 0.71709 0.71709 0 0 1 -0.50849 -0.21052 l -34.61187 -34.5883 a 0.71881 0.71881 0 0 1 1.017 -1.01611 l 34.61187 34.58829 a 0.71858 0.71858 0 0 1 -0.50849 1.22664 Z" stroke-linecap="round"/>
</g>
		<g transform="matrix(1 0 0 1 -42.9141 46.0463)">
<path style="stroke: none; stroke-width: 1; stroke-dasharray: none; stroke-linecap: butt; stroke-dashoffset: 0; stroke-linejoin: miter; stroke-miterlimit: 4; is-custom-font: none; font-file-url: none; fill: rgb(63,61,86); fill-rule: nonzero; opacity: 1;" transform=" translate(-557.0859, -496.0463)" d="M 528.10406 525.72747 a 0.71858 0.71858 0 0 1 -0.50849 -1.22664 l 57.96386 -57.92492 a 0.71881 0.71881 0 0 1 1.017 1.01612 l -57.96386 57.92492 A 0.71717 0.71717 0 0 1 528.10406 525.72747 Z" stroke-linecap="round"/>
</g>
		<g transform="matrix(1 0 0 1 -62.1931 240.132)">
<path style="stroke: none; stroke-width: 1; stroke-dasharray: none; stroke-linecap: butt; stroke-dashoffset: 0; stroke-linejoin: miter; stroke-miterlimit: 4; is-custom-font: none; font-file-url: none; fill: rgb(32,65,22); fill-rule: nonzero; opacity: 1;" transform=" translate(-537.8069, -690.132)" d="M 533.3236 703.92751 a 7.08161 7.08161 0 0 1 -6.10072 -10.663 V 693.264 l 9.91474 -16.92759 l 12.22566 7.16079 l -9.91474 16.92813 A 7.08906 7.08906 0 0 1 533.3236 703.92751 Z" stroke-linecap="round"/>
</g>
		<g transform="matrix(1 0 0 1 -27.7689 206.5203)">
<circle style="stroke: none; stroke-width: 1; stroke-dasharray: none; stroke-linecap: butt; stroke-dashoffset: 0; stroke-linejoin: miter; stroke-miterlimit: 4; is-custom-font: none; font-file-url: none; fill: rgb(32,65,22); fill-rule: nonzero; opacity: 1;" cx="0" cy="0" r="8.71897"/>
</g>
		<g transform="matrix(1 0 0 1 -100.5546 240.1319)">
<path style="stroke: none; stroke-width: 1; stroke-dasharray: none; stroke-linecap: butt; stroke-dashoffset: 0; stroke-linejoin: miter; stroke-miterlimit: 4; is-custom-font: none; font-file-url: none; fill: rgb(32,65,22); fill-rule: nonzero; opacity: 1;" transform=" translate(-499.4453, -690.132)" d="M 494.96231 703.92751 a 7.08164 7.08164 0 0 1 -6.10072 -10.6635 l 9.91474 -16.92759 l 12.2254 7.16079 L 501.087 700.42534 A 7.08977 7.08977 0 0 1 494.96231 703.92751 Z" stroke-linecap="round"/>
</g>
		<g transform="matrix(1 0 0 1 -71.9304 224.0853)">
<path style="stroke: none; stroke-width: 1; stroke-dasharray: none; stroke-linecap: butt; stroke-dashoffset: 0; stroke-linejoin: miter; stroke-miterlimit: 4; is-custom-font: none; font-file-url: none; fill: rgb(63,61,86); fill-rule: nonzero; opacity: 1;" transform=" translate(-528.0695, -674.0854)" d="M 552.04672 692.61317 H 508.115 a 22.57591 22.57591 0 0 1 -22.55044 -22.55043 v -6.67387 a 7.84026 7.84026 0 0 1 7.83105 -7.83132 h 58.6511 a 18.52781 18.52781 0 0 1 0 37.05562 Z" stroke-linecap="round"/>
</g>
		<g transform="matrix(1 0 0 1 -50.0351 246.3415)">
<path style="stroke: none; stroke-width: 1; stroke-dasharray: none; stroke-linecap: butt; stroke-dashoffset: 0; stroke-linejoin: miter; stroke-miterlimit: 4; is-custom-font: none; font-file-url: none; fill: rgb(63,61,86); fill-rule: nonzero; opacity: 1;" transform=" translate(-549.9649, -696.3415)" d="M 549.96489 709.69244 a 7.0922 7.0922 0 0 1 -7.08416 -7.08417 V 682.99059 h 14.16832 v 19.61768 A 7.0922 7.0922 0 0 1 549.96489 709.69244 Z" stroke-linecap="round"/>
</g>
		<g transform="matrix(1 0 0 1 -91.1476 246.3415)">
<path style="stroke: none; stroke-width: 1; stroke-dasharray: none; stroke-linecap: butt; stroke-dashoffset: 0; stroke-linejoin: miter; stroke-miterlimit: 4; is-custom-font: none; font-file-url: none; fill: rgb(63,61,86); fill-rule: nonzero; opacity: 1;" transform=" translate(-508.8523, -696.3415)" d="M 508.85232 709.69244 a 7.09221 7.09221 0 0 1 -7.08417 -7.08417 V 682.99059 h 14.16833 v 19.61768 A 7.0922 7.0922 0 0 1 508.85232 709.69244 Z" stroke-linecap="round"/>
</g>
		<g transform="matrix(1 0 0 1 -142.2942 187.7534)">
<path style="stroke: none; stroke-width: 1; stroke-dasharray: none; stroke-linecap: butt; stroke-dashoffset: 0; stroke-linejoin: miter; stroke-miterlimit: 4; is-custom-font: none; font-file-url: none; fill: rgb(32,65,22); fill-rule: nonzero; opacity: 1;" transform=" translate(-457.7058, -637.7534)" d="M 472.62317 642.83676 l -13.59586 10.91946 l -14.33178 -17.84456 a 8.719 8.719 0 0 1 13.59585 -10.91946 Z" stroke-linecap="round"/>
</g>
		<g transform="matrix(1 0 0 1 -129.5705 214.0026)">
<path style="stroke: none; stroke-width: 1; stroke-dasharray: none; stroke-linecap: butt; stroke-dashoffset: 0; stroke-linejoin: miter; stroke-miterlimit: 4; is-custom-font: none; font-file-url: none; fill: rgb(63,61,86); fill-rule: nonzero; opacity: 1;" transform=" translate(-470.4295, -664.0026)" d="M 491.84959 668.98355 l -22.4864 18.05985 a 6.29433 6.29433 0 0 1 -8.83882 -0.96477 l -9.45956 -11.77812 a 20.04438 20.04438 0 0 1 3.07295 -28.14757 l 3.58733 -2.88115 a 16.81161 16.81161 0 0 1 23.60781 2.57732 l 11.48162 14.29582 A 6.29411 6.29411 0 0 1 491.84959 668.98355 Z" stroke-linecap="round"/>
</g>
		<g transform="matrix(1 0 0 1 -140.7299 185.4854)">
<path style="stroke: none; stroke-width: 1; stroke-dasharray: none; stroke-linecap: butt; stroke-dashoffset: 0; stroke-linejoin: miter; stroke-miterlimit: 4; is-custom-font: none; font-file-url: none; fill: rgb(63,61,86); fill-rule: nonzero; opacity: 1;" transform=" translate(-459.2701, -635.4854)" d="M 472.62317 642.83676 l -9.34715 7.50713 l -16.038 -19.96891 a 5.99429 5.99429 0 0 1 9.34715 -7.50713 Z" stroke-linecap="round"/>
</g>
		<g transform="matrix(1 0 0 1 -128.9223 223.8943)">
<path style="stroke: none; stroke-width: 1; stroke-dasharray: none; stroke-linecap: butt; stroke-dashoffset: 0; stroke-linejoin: miter; stroke-miterlimit: 4; is-custom-font: none; font-file-url: none; fill: rgb(63,61,86); fill-rule: nonzero; opacity: 1;" transform=" translate(-471.0777, -673.8943)" d="M 490.48016 669.84245 L 465.83768 689.634 a 8.719 8.719 0 0 1 -10.91946 -13.59586 l 24.64249 -19.79151 Z" stroke-linecap="round"/>
</g>
		<g transform="matrix(0.7797 -0.6262 0.6262 0.7797 -145.8817 237.6619)">
<ellipse style="stroke: none; stroke-width: 1; stroke-dasharray: none; stroke-linecap: butt; stroke-dashoffset: 0; stroke-linejoin: miter; stroke-miterlimit: 4; is-custom-font: none; font-file-url: none; fill: rgb(32,65,22); fill-rule: nonzero; opacity: 1;" cx="0" cy="0" rx="2.04351" ry="3.67832"/>
</g>
		<g transform="matrix(1 0 0 1 -221.0743 248.1296)">
<path style="stroke: none; stroke-width: 1; stroke-dasharray: none; stroke-linecap: butt; stroke-dashoffset: 0; stroke-linejoin: miter; stroke-miterlimit: 4; is-custom-font: none; font-file-url: none; fill: rgb(204,204,204); fill-rule: nonzero; opacity: 1;" transform=" translate(-378.9257, -698.1296)" d="M 386.49493 698.1296 a 10.5 10.5 0 0 1 -10.5 10.5 c -5.799 0 -6 -5.25 -1.5 -10.5 c -4.5 -3 -4.299 -10.5 1.5 -10.5 A 10.5 10.5 0 0 1 386.49493 698.1296 Z" stroke-linecap="round"/>
</g>
		<g transform="matrix(1 0 0 1 -175.9358 248.1296)">
<path style="stroke: none; stroke-width: 1; stroke-dasharray: none; stroke-linecap: butt; stroke-dashoffset: 0; stroke-linejoin: miter; stroke-miterlimit: 4; is-custom-font: none; font-file-url: none; fill: rgb(204,204,204); fill-rule: nonzero; opacity: 1;" transform=" translate(-424.0642, -698.1296)" d="M 416.49493 698.1296 a 10.5 10.5 0 0 0 10.5 10.5 c 5.799 0 6 -5.25 1.5 -10.5 c 4.5 -3 4.299 -10.5 -1.5 -10.5 A 10.5 10.5 0 0 0 416.49493 698.1296 Z" stroke-linecap="round"/>
</g>
		<g transform="matrix(1 0 0 1 -198.5051 248.1296)">
<rect style="stroke: none; stroke-width: 1; stroke-dasharray: none; stroke-linecap: butt; stroke-dashoffset: 0; stroke-linejoin: miter; stroke-miterlimit: 4; is-custom-font: none; font-file-url: none; fill: rgb(204,204,204); fill-rule: nonzero; opacity: 1;" x="-21" y="-5.25" rx="0" ry="0" width="42" height="10.5"/>
</g>
		<g transform="matrix(1 0 0 1 17.0726 259.6296)">
<path style="stroke: none; stroke-width: 1; stroke-dasharray: none; stroke-linecap: butt; stroke-dashoffset: 0; stroke-linejoin: miter; stroke-miterlimit: 4; is-custom-font: none; font-file-url: none; fill: rgb(63,61,86); fill-rule: nonzero; opacity: 1;" transform=" translate(-617.0726, -709.6296)" d="M 990.0726 710.6296 h -746 a 1 1 0 1 1 0 -2 h 746 a 1 1 0 0 1 0 2 Z" stroke-linecap="round"/>
</g>
		<g transform="matrix(1 0 0 1 213.3985 47.4708)">
<circle style="stroke: none; stroke-width: 1; stroke-dasharray: none; stroke-linecap: butt; stroke-dashoffset: 0; stroke-linejoin: miter; stroke-miterlimit: 4; is-custom-font: none; font-file-url: none; fill: rgb(160,97,106); fill-rule: nonzero; opacity: 1;" cx="0" cy="0" r="14.7999"/>
</g>
		<g transform="matrix(1 0 0 1 230.1319 104.2436)">
<path style="stroke: none; stroke-width: 1; stroke-dasharray: none; stroke-linecap: butt; stroke-dashoffset: 0; stroke-linejoin: miter; stroke-miterlimit: 4; is-custom-font: none; font-file-url: none; fill: rgb(160,97,106); fill-rule: nonzero; opacity: 1;" transform=" translate(-830.132, -554.2436)" d="M 812.442 580.44036 a 6.62955 6.62955 0 0 1 5.01495 -8.52728 a 6.3076 6.3076 0 0 1 0.87929 -0.10827 l 15.58961 -25.021 l -14.24028 -13.538 a 5.68355 5.68355 0 1 1 7.90617 -8.16656 l 19.6617 19.38719 l 0.03957 0.04825 a 5.14883 5.14883 0 0 1 -0.35822 6.137 L 825.09141 576.486 a 6.208 6.208 0 0 1 0.1627 0.63024 a 6.62992 6.62992 0 0 1 -5.95044 7.90352 q -0.28224 0.0247 -0.56168 0.02471 A 6.65045 6.65045 0 0 1 812.442 580.44036 Z" stroke-linecap="round"/>
</g>
		<g transform="matrix(1 0 0 1 183.5729 239.2005)">
<polygon style="stroke: none; stroke-width: 1; stroke-dasharray: none; stroke-linecap: butt; stroke-dashoffset: 0; stroke-linejoin: miter; stroke-miterlimit: 4; is-custom-font: none; font-file-url: none; fill: rgb(160,97,106); fill-rule: nonzero; opacity: 1;" points="5.4505,14.2475 -1.9375,14.2475 -5.4515,-14.2475 5.4515,-14.2465 5.4505,14.2475 "/>
</g>
		<g transform="matrix(1 0 0 1 178.9971 255.8228)">
<path style="stroke: none; stroke-width: 1; stroke-dasharray: none; stroke-linecap: butt; stroke-dashoffset: 0; stroke-linejoin: miter; stroke-miterlimit: 4; is-custom-font: none; font-file-url: none; fill: rgb(47,46,65); fill-rule: nonzero; opacity: 1;" transform=" translate(-778.9971, -705.8228)" d="M 791.20823 710.91086 L 766.7855 710.91 v -0.60258 a 9.57264 9.57264 0 0 1 9.57281 -9.57267 l 14.85036 0.00059 Z" stroke-linecap="round"/>
</g>
		<g transform="matrix(1 0 0 1 250.4774 232.8825)">
<polygon style="stroke: none; stroke-width: 1; stroke-dasharray: none; stroke-linecap: butt; stroke-dashoffset: 0; stroke-linejoin: miter; stroke-miterlimit: 4; is-custom-font: none; font-file-url: none; fill: rgb(160,97,106); fill-rule: nonzero; opacity: 1;" points="11.973,10.3515 5.625,14.1315 -11.973,-8.5535 -2.604,-14.1315 11.973,10.3515 "/>
</g>
		<g transform="matrix(1 0 0 1 256.8247 250.4037)">
<path style="stroke: none; stroke-width: 1; stroke-dasharray: none; stroke-linecap: butt; stroke-dashoffset: 0; stroke-linejoin: miter; stroke-miterlimit: 4; is-custom-font: none; font-file-url: none; fill: rgb(47,46,65); fill-rule: nonzero; opacity: 1;" transform=" translate(-856.8246, -700.4037)" d="M 847.161 711.02266 l -0.30835 -0.51783 a 9.57315 9.57315 0 0 1 3.32756 -13.12281 l 12.76 -7.59723 l 5.20546 8.74324 Z" stroke-linecap="round"/>
</g>
		<g transform="matrix(1 0 0 1 215.8465 174.8106)">
<path style="stroke: none; stroke-width: 1; stroke-dasharray: none; stroke-linecap: butt; stroke-dashoffset: 0; stroke-linejoin: miter; stroke-miterlimit: 4; is-custom-font: none; font-file-url: none; fill: rgb(47,46,65); fill-rule: nonzero; opacity: 1;" transform=" translate(-815.8465, -624.8107)" d="M 777.18952 690.89956 c -4.94889 -58.27279 -7.89292 -112.40757 10.198 -134.491 l 0.1399 -0.17124 L 817.973 568.4159 l 0.05017 0.10887 c 0.10268 0.22361 10.22805 22.496 7.86615 37.47684 l 7.5097 34.54457 l 24.48614 40.99991 a 2.71242 2.71242 0 0 1 -1.23576 3.87321 l -10.641 4.68173 a 2.7245 2.7245 0 0 1 -3.40362 -1.06392 l -26.63635 -43.43376 l -15.045 -33.31412 a 0.904 0.904 0 0 0 -1.7227 0.27658 L 790.86106 690.959 a 2.70665 2.70665 0 0 1 -2.69629 2.425 h -8.27233 A 2.72994 2.72994 0 0 1 777.18952 690.89956 Z" stroke-linecap="round"/>
</g>
		<g transform="matrix(1 0 0 1 209.1496 94.6716)">
<path style="stroke: none; stroke-width: 1; stroke-dasharray: none; stroke-linecap: butt; stroke-dashoffset: 0; stroke-linejoin: miter; stroke-miterlimit: 4; is-custom-font: none; font-file-url: none; fill: rgb(32,65,22); fill-rule: nonzero; opacity: 1;" transform=" translate(-809.1496, -544.6715)" d="M 787.49011 556.87044 l -0.14506 -0.06943 l -0.02265 -0.15948 c -1.13733 -7.96 0.2089 -16.80446 4.001 -26.28739 a 20.871 20.871 0 0 1 24.22472 -12.49934 h 0 a 20.84575 20.84575 0 0 1 13.29317 10.222 a 20.62071 20.62071 0 0 1 1.42979 16.52554 c -4.78074 13.97989 -10.98245 27.06 -11.04454 27.19068 l -0.1299 0.273 Z" stroke-linecap="round"/>
</g>
		<g transform="matrix(1 0 0 1 187.2719 110.5376)">
<path style="stroke: none; stroke-width: 1; stroke-dasharray: none; stroke-linecap: butt; stroke-dashoffset: 0; stroke-linejoin: miter; stroke-miterlimit: 4; is-custom-font: none; font-file-url: none; fill: rgb(160,97,106); fill-rule: nonzero; opacity: 1;" transform=" translate(-787.2719, -560.5376)" d="M 765.583 589.88307 a 6.76854 6.76854 0 0 1 4.85295 -7.38255 l 28.46991 -54.658 a 5.45461 5.45461 0 1 1 9.2827 5.73051 L 779.046 587.85045 a 6.569 6.569 0 0 1 0.10826 1.0002 a 6.81343 6.81343 0 0 1 -6.90477 6.997 h 0 a 6.81974 6.81974 0 0 1 -5.22862 -2.561 A 6.73612 6.73612 0 0 1 765.583 589.88307 Z" stroke-linecap="round"/>
</g>
		<g transform="matrix(1 0 0 1 207.2043 32.8701)">
<path style="stroke: none; stroke-width: 1; stroke-dasharray: none; stroke-linecap: butt; stroke-dashoffset: 0; stroke-linejoin: miter; stroke-miterlimit: 4; is-custom-font: none; font-file-url: none; fill: rgb(47,46,65); fill-rule: nonzero; opacity: 1;" transform=" translate(-807.2043, -482.8701)" d="M 795.45409 489.11061 h 23.50048 v -10.2438 c -5.15809 -2.04922 -10.20555 -3.792 -13.25668 0 a 10.24386 10.24386 0 0 0 -10.2438 10.24379 Z" stroke-linecap="round"/>
</g>
		<g transform="matrix(1 0 0 1 220.2557 45.0881)">
<path style="stroke: none; stroke-width: 1; stroke-dasharray: none; stroke-linecap: butt; stroke-dashoffset: 0; stroke-linejoin: miter; stroke-miterlimit: 4; is-custom-font: none; font-file-url: none; fill: rgb(47,46,65); fill-rule: nonzero; opacity: 1;" transform=" translate(-820.2558, -495.0881)" d="M 820.25564 477.05908 c 14.049 0 17.98138 17.60991 17.98138 27.54455 c 0 5.54044 -2.50564 7.52206 -6.443 8.19256 l -1.39052 -7.416 l -3.25679 7.73515 c -1.106 0.00551 -2.2679 -0.01589 -3.47247 -0.03825 L 822.57 510.80336 l -2.46238 2.23292 c -9.86219 0.01468 -17.83309 1.4523 -17.83309 -8.43265 C 802.27456 494.669 805.72319 477.05908 820.25564 477.05908 Z" stroke-linecap="round"/>
</g>
</g>
</g>
<g transform="matrix(0.3048 0 0 0.3048 870.9372 731.6143)" id="152520">
<g style="" vector-effect="non-scaling-stroke">
		<g transform="matrix(1 0 0 1 -354.4713 294.0234)">
<polygon style="stroke: none; stroke-width: 1; stroke-dasharray: none; stroke-linecap: butt; stroke-dashoffset: 0; stroke-linejoin: miter; stroke-miterlimit: 4; is-custom-font: none; font-file-url: none; fill: rgb(63,61,86); fill-rule: nonzero; opacity: 1;" points="0,-35.5 -9.5,35.5 9.5,35.5 0,-35.5 "/>
</g>
		<g transform="matrix(1 0 0 1 -364.4713 300.0234)">
<polygon style="stroke: none; stroke-width: 1; stroke-dasharray: none; stroke-linecap: butt; stroke-dashoffset: 0; stroke-linejoin: miter; stroke-miterlimit: 4; is-custom-font: none; font-file-url: none; fill: rgb(63,61,86); fill-rule: nonzero; opacity: 1;" points="0,-35.5 -9.5,35.5 9.5,35.5 0,-35.5 "/>
</g>
		<g transform="matrix(1 0 0 1 -376.4713 300.0234)">
<polygon style="stroke: none; stroke-width: 1; stroke-dasharray: none; stroke-linecap: butt; stroke-dashoffset: 0; stroke-linejoin: miter; stroke-miterlimit: 4; is-custom-font: none; font-file-url: none; fill: rgb(63,61,86); fill-rule: nonzero; opacity: 1;" points="0,-35.5 -9.5,35.5 9.5,35.5 0,-35.5 "/>
</g>
		<g transform="matrix(1 0 0 1 217.5287 272.0234)">
<polygon style="stroke: none; stroke-width: 1; stroke-dasharray: none; stroke-linecap: butt; stroke-dashoffset: 0; stroke-linejoin: miter; stroke-miterlimit: 4; is-custom-font: none; font-file-url: none; fill: rgb(63,61,86); fill-rule: nonzero; opacity: 1;" points="0,-35.5 -9.5,35.5 9.5,35.5 0,-35.5 "/>
</g>
		<g transform="matrix(1 0 0 1 230.5287 272.0234)">
<polygon style="stroke: none; stroke-width: 1; stroke-dasharray: none; stroke-linecap: butt; stroke-dashoffset: 0; stroke-linejoin: miter; stroke-miterlimit: 4; is-custom-font: none; font-file-url: none; fill: rgb(63,61,86); fill-rule: nonzero; opacity: 1;" points="0,-35.5 -9.5,35.5 9.5,35.5 0,-35.5 "/>
</g>
		<g transform="matrix(1 0 0 1 240.5287 287.0234)">
<polygon style="stroke: none; stroke-width: 1; stroke-dasharray: none; stroke-linecap: butt; stroke-dashoffset: 0; stroke-linejoin: miter; stroke-miterlimit: 4; is-custom-font: none; font-file-url: none; fill: rgb(63,61,86); fill-rule: nonzero; opacity: 1;" points="0,-35.5 -9.5,35.5 9.5,35.5 0,-35.5 "/>
</g>
		<g transform="matrix(1 0 0 1 253.5287 287.0234)">
<polygon style="stroke: none; stroke-width: 1; stroke-dasharray: none; stroke-linecap: butt; stroke-dashoffset: 0; stroke-linejoin: miter; stroke-miterlimit: 4; is-custom-font: none; font-file-url: none; fill: rgb(63,61,86); fill-rule: nonzero; opacity: 1;" points="0,-35.5 -9.5,35.5 9.5,35.5 0,-35.5 "/>
</g>
		<g transform="matrix(1 0 0 1 309.5287 298.0234)">
<polygon style="stroke: none; stroke-width: 1; stroke-dasharray: none; stroke-linecap: butt; stroke-dashoffset: 0; stroke-linejoin: miter; stroke-miterlimit: 4; is-custom-font: none; font-file-url: none; fill: rgb(63,61,86); fill-rule: nonzero; opacity: 1;" points="0,-35.5 -9.5,35.5 9.5,35.5 0,-35.5 "/>
</g>
		<g transform="matrix(1 0 0 1 322.5287 298.0234)">
<polygon style="stroke: none; stroke-width: 1; stroke-dasharray: none; stroke-linecap: butt; stroke-dashoffset: 0; stroke-linejoin: miter; stroke-miterlimit: 4; is-custom-font: none; font-file-url: none; fill: rgb(63,61,86); fill-rule: nonzero; opacity: 1;" points="0,-35.5 -9.5,35.5 9.5,35.5 0,-35.5 "/>
</g>
		<g transform="matrix(1 0 0 1 332.5287 307.5234)">
<polygon style="stroke: none; stroke-width: 1; stroke-dasharray: none; stroke-linecap: butt; stroke-dashoffset: 0; stroke-linejoin: miter; stroke-miterlimit: 4; is-custom-font: none; font-file-url: none; fill: rgb(63,61,86); fill-rule: nonzero; opacity: 1;" points="8.03,30 -8.03,30 -7.49,26 -4.11,0.74 -4,-0.13 0,-30 4.38,2.75 6.5,18.58 8.03,30 "/>
</g>
		<g transform="matrix(1 0 0 1 345.5287 307.5234)">
<polygon style="stroke: none; stroke-width: 1; stroke-dasharray: none; stroke-linecap: butt; stroke-dashoffset: 0; stroke-linejoin: miter; stroke-miterlimit: 4; is-custom-font: none; font-file-url: none; fill: rgb(63,61,86); fill-rule: nonzero; opacity: 1;" points="8.03,30 -8.03,30 -6.5,18.58 -4.51,3.74 0,-30 4.82,6.04 4.82,6.05 6.23,16.58 8.03,30 "/>
</g>
		<g transform="matrix(1 0 0 1 358.5287 305.5234)">
<polygon style="stroke: none; stroke-width: 1; stroke-dasharray: none; stroke-linecap: butt; stroke-dashoffset: 0; stroke-linejoin: miter; stroke-miterlimit: 4; is-custom-font: none; font-file-url: none; fill: rgb(63,61,86); fill-rule: nonzero; opacity: 1;" points="8.56,32 -8.56,32 -6.77,18.58 -5.45,8.73 0,-32 5.84,11.62 6.5,16.58 8.56,32 "/>
</g>
		<g transform="matrix(1 0 0 1 371.5287 305.5234)">
<polygon style="stroke: none; stroke-width: 1; stroke-dasharray: none; stroke-linecap: butt; stroke-dashoffset: 0; stroke-linejoin: miter; stroke-miterlimit: 4; is-custom-font: none; font-file-url: none; fill: rgb(63,61,86); fill-rule: nonzero; opacity: 1;" points="8.56,32 -8.56,32 -6.5,16.58 -5.88,11.95 0,-32 6,12.87 6.32,15.21 8.56,32 "/>
</g>
		<g transform="matrix(1 0 0 1 381.5287 313.0234)">
<polygon style="stroke: none; stroke-width: 1; stroke-dasharray: none; stroke-linecap: butt; stroke-dashoffset: 0; stroke-linejoin: miter; stroke-miterlimit: 4; is-custom-font: none; font-file-url: none; fill: rgb(63,61,86); fill-rule: nonzero; opacity: 1;" points="6.56,24.5 -6.56,24.5 -4.29,7.55 -4,5.37 0,-24.5 4.61,9.99 6.5,24.08 6.56,24.5 "/>
</g>
		<g transform="matrix(1 0 0 1 394.5287 313.0234)">
<polygon style="stroke: none; stroke-width: 1; stroke-dasharray: none; stroke-linecap: butt; stroke-dashoffset: 0; stroke-linejoin: miter; stroke-miterlimit: 4; is-custom-font: none; font-file-url: none; fill: rgb(63,61,86); fill-rule: nonzero; opacity: 1;" points="6.56,24.5 -6.56,24.5 -6.5,24.08 -4.75,11 0,-24.5 5.13,13.81 6.56,24.5 "/>
</g>
		<g transform="matrix(1 0 0 1 -339.4714 -248.9766)">
<circle style="stroke: none; stroke-width: 1; stroke-dasharray: none; stroke-linecap: butt; stroke-dashoffset: 0; stroke-linejoin: miter; stroke-miterlimit: 4; is-custom-font: none; font-file-url: none; fill: rgb(255,101,132); fill-rule: nonzero; opacity: 1;" cx="0" cy="0" r="95.5"/>
</g>
		<g transform="matrix(1 0 0 1 0.0286 309.9702)">
<path style="stroke: none; stroke-width: 1; stroke-dasharray: none; stroke-linecap: butt; stroke-dashoffset: 0; stroke-linejoin: miter; stroke-miterlimit: 4; is-custom-font: none; font-file-url: none; fill: rgb(230,230,230); fill-rule: nonzero; opacity: 1;" transform=" translate(-600.0286, -759.9702)" d="M 1035.02856 793.52344 h -870 s 176.64 -67.87 436.81 -67.1 c 1.46 0 2.92 0.01 4.38 0.02 q 7.785 0.045 15.66 0.17 q 6.16508 0.105 12.38 0.26 c 1.79 0.04 3.58 0.09 5.38 0.14 c 0.72 0.02 1.43 0.04 2.14 0.06 c 1.65 0.05 3.31 0.1 4.98 0.16 c 3.13 0.1 6.27 0.22 9.42 0.34 q 4.13992 0.165 8.32 0.36 c 1.06 0.04 2.14 0.09 3.21 0.15 q 7.575 0.345 15.21 0.8 c 1.18 0.07 2.36 0.14 3.55 0.21 c 1.63 0.09 3.27 0.2 4.9 0.3 q 3.24 0.21 6.48 0.43 c 2.81 0.19 5.61 0.39 8.42 0.6 q 8.82 0.645 17.74 1.42 c 4.42 0.37 8.85 0.78 13.3 1.2 q 2.83494 0.27007 5.69 0.56 q 4.365 0.42 8.75 0.89 c 1.86 0.2 3.73 0.4 5.59 0.6 c 2.25 0.24 4.49 0.49 6.74 0.75 c 2.24 0.26 4.5 0.52 6.75 0.79 q 3.39 0.405 6.78 0.82 c 2.27 0.28 4.53 0.56 6.8 0.86 c 2.24 0.28 4.48 0.58 6.73 0.88 q 14.37 1.905 28.95 4.15 c 1.86 0.28 3.74 0.57 5.61 0.87 q 2.895 0.45 5.81 0.93 q 4.05 0.645 8.13 1.34 c 2.33 0.39 4.66 0.78 7 1.19 c 2.11 0.36005 4.24 0.73 6.36 1.11005 q 0.33 0.06 0.66 0.12 c 2.34 0.41 4.69 0.84 7.03 1.27 c 2.35 0.43 4.71 0.87 7.06 1.31 q 3.54006 0.66 7.08 1.35 c 2.37 0.46 4.73 0.92 7.1 1.39 c 1.85 0.37 3.69 0.74 5.54 1.11 c 0.92 0.19 1.84 0.37 2.76 0.56 q 2.97 0.615 5.96 1.24 q 3.57 0.75 7.15 1.51 c 0.27 0.06 0.53 0.12 0.8 0.17 q 5.55 1.2 11.11 2.44 c 0.5 0.11 1.01 0.23 1.52 0.34 q 2.91 0.645 5.82 1.32 c 1.94 0.44995 3.88 0.89 5.83 1.35 a 2.0484 2.0484 0 0 1 0.24 0.05 c 2.75 0.64 5.49 1.29 8.25 1.96 q 2.055 0.48 4.11 0.99 c 1.88 0.45 3.75 0.91 5.63 1.38 c 1.23 0.31 2.46 0.62 3.7 0.93 c 0.91 0.21 1.82 0.44 2.73 0.68 q 2.88 0.705 5.77 1.46 q 2.685 0.68994 5.37 1.38995 a 0.83417 0.83417 0 0 1 0.15 0.04 c 0.43 0.11 0.85 0.22 1.28 0.33 c 1.31 0.34 2.62 0.69 3.94 1.04 c 1.35 0.36 2.71 0.72 4.07 1.09 c 1.19 0.32 2.39 0.64 3.58 0.97 a 0.29566 0.29566 0 0 1 0.1 0.02 c 0.17 0.04 0.34 0.09 0.51 0.14 c 1.38 0.37 2.76 0.74 4.14 1.13 c 1.38 0.38 2.76 0.76 4.15 1.15 c 0.14 0.03 0.28 0.07 0.42 0.11 q 1.60493 0.43506 3.21 0.9 s 0 -0.01 0.01 0 c 0.61 0.16 1.22 0.34 1.83 0.51 q 2.445 0.68994 4.89 1.38995 c 1.05 0.3 2.11 0.6 3.16 0.91 c 2.93 0.85 5.87 1.7 8.81 2.57 s 5.89 1.75 8.83 2.64 c 1.77 0.53 3.53 1.07 5.3 1.62 q 2.49 0.75 4.98 1.53 C 1030.05859 791.96344 1032.54858 792.7334 1035.02856 793.52344 Z" stroke-linecap="round"/>
</g>
		<g transform="matrix(1 0 0 1 0 309.9463)">
<path style="stroke: none; stroke-width: 1; stroke-dasharray: none; stroke-linecap: butt; stroke-dashoffset: 0; stroke-linejoin: miter; stroke-miterlimit: 4; is-custom-font: none; font-file-url: none; fill: rgb(63,61,86); fill-rule: nonzero; opacity: 1;" transform=" translate(-600, -759.9463)" d="M 1034.72681 794.47656 C 788.49438 716.5293 565.218 720.68164 421.27222 737.8916 C 265.325 756.53613 166.36841 794.08008 165.38745 794.457 l -0.71777 -1.86719 c 0.98388 -0.37793 100.17334 -38.01074 256.36523 -56.68457 a 1486.92048 1486.92048 0 0 1 276.89014 -7.083 a 1444.32481 1444.32481 0 0 1 337.40527 63.748 Z" stroke-linecap="round"/>
</g>
		<g transform="matrix(1 0 0 1 271.5286 -145.026)">
<circle style="stroke: none; stroke-width: 1; stroke-dasharray: none; stroke-linecap: butt; stroke-dashoffset: 0; stroke-linejoin: miter; stroke-miterlimit: 4; is-custom-font: none; font-file-url: none; fill: rgb(32,65,22); fill-rule: nonzero; opacity: 1;" cx="0" cy="0" r="163.5"/>
</g>
		<g transform="matrix(1 0 0 1 277.6465 -118.0862)">
<path style="stroke: none; stroke-width: 1; stroke-dasharray: none; stroke-linecap: butt; stroke-dashoffset: 0; stroke-linejoin: miter; stroke-miterlimit: 4; is-custom-font: none; font-file-url: none; fill: rgb(0,0,0); fill-rule: nonzero; opacity: 0.2;" transform=" translate(-877.6465, -331.9138)" d="M 993.15005 195.76883 A 163.51275 163.51275 0 0 1 720.71071 368.81244 A 163.51409 163.51409 0 1 0 993.15005 195.76883 Z" stroke-linecap="round"/>
</g>
		<g transform="matrix(1 0 0 1 271.9777 86.7489)">
<polygon style="stroke: none; stroke-width: 1; stroke-dasharray: none; stroke-linecap: butt; stroke-dashoffset: 0; stroke-linejoin: miter; stroke-miterlimit: 4; is-custom-font: none; font-file-url: none; fill: rgb(63,61,86); fill-rule: nonzero; opacity: 1;" points="0,-231.7745 0.449,-231.7745 8.534,231.7745 -8.534,231.7745 0,-231.7745 "/>
</g>
		<g transform="matrix(0.4659 0.8849 -0.8849 0.4659 286.3514 111.0042)">
<rect style="stroke: none; stroke-width: 1; stroke-dasharray: none; stroke-linecap: butt; stroke-dashoffset: 0; stroke-linejoin: miter; stroke-miterlimit: 4; is-custom-font: none; font-file-url: none; fill: rgb(63,61,86); fill-rule: nonzero; opacity: 1;" x="-4.0426" y="-15.272" rx="0" ry="0" width="8.0852" height="30.544"/>
</g>
		<g transform="matrix(1 0 0 1 21.8882 -73.4226)">
<polygon style="stroke: none; stroke-width: 1; stroke-dasharray: none; stroke-linecap: butt; stroke-dashoffset: 0; stroke-linejoin: miter; stroke-miterlimit: 4; is-custom-font: none; font-file-url: none; fill: rgb(47,46,65); fill-rule: nonzero; opacity: 1;" points="-34.7625,16.447 14.1125,27.632 34.7625,-11.316 -7.0295,-27.632 -34.7625,16.447 "/>
</g>
		<g transform="matrix(1 0 0 1 -5.2368 196.2193)">
<path style="stroke: none; stroke-width: 1; stroke-dasharray: none; stroke-linecap: butt; stroke-dashoffset: 0; stroke-linejoin: miter; stroke-miterlimit: 4; is-custom-font: none; font-file-url: none; fill: rgb(255,185,185); fill-rule: nonzero; opacity: 1;" transform=" translate(-594.7632, -646.2193)" d="M 613.09257 602.687 s -15.7109 36.00414 -15.7109 46.47807 c 0 0 6.2189 28.476 4.255 36.33145 l -6.87352 14.729 l -14.40166 -5.89158 l -3.92772 -39.27724 l 0.65462 -62.84359 Z" stroke-linecap="round"/>
</g>
		<g transform="matrix(1 0 0 1 35.1687 -42.0627)">
<path style="stroke: none; stroke-width: 1; stroke-dasharray: none; stroke-linecap: butt; stroke-dashoffset: 0; stroke-linejoin: miter; stroke-miterlimit: 4; is-custom-font: none; font-file-url: none; fill: rgb(255,185,185); fill-rule: nonzero; opacity: 1;" transform=" translate(-635.1686, -407.9374)" d="M 621.93 387.31683 s 1.30924 21.60248 -1.30925 28.14869 s 9.81931 18.984 9.81931 18.984 l 19.63862 -25.53021 s -13.09241 -13.09241 -9.81931 -27.49406 Z" stroke-linecap="round"/>
</g>
		<g transform="matrix(1 0 0 1 -14.4638 53.0903)">
<path style="stroke: none; stroke-width: 1; stroke-dasharray: none; stroke-linecap: butt; stroke-dashoffset: 0; stroke-linejoin: miter; stroke-miterlimit: 4; is-custom-font: none; font-file-url: none; fill: rgb(255,185,185); fill-rule: nonzero; opacity: 1;" transform=" translate(-585.5362, -503.0903)" d="M 583.962 439.03187 v 34.69489 l -2.9458 63.1709 s -18.984 35.34951 -0.65462 32.731 s 12.11049 -33.713 12.11049 -33.713 l 6.21889 -61.86165 l -0.32731 -37.64069 Z" stroke-linecap="round"/>
</g>
		<g transform="matrix(1 0 0 1 -13.23 280.3661)">
<path style="stroke: none; stroke-width: 1; stroke-dasharray: none; stroke-linecap: butt; stroke-dashoffset: 0; stroke-linejoin: miter; stroke-miterlimit: 4; is-custom-font: none; font-file-url: none; fill: rgb(47,46,65); fill-rule: nonzero; opacity: 1;" transform=" translate(-586.77, -730.3661)" d="M 576.76112 689.75158 L 604.90981 678.623 l 3.2731 55.64276 s 5.89159 17.02013 3.92773 23.56634 c 0 0 1.30924 11.12855 -1.96387 11.78317 s -12.43779 1.96387 -13.09241 1.30924 s -0.65462 -2.61848 -0.65462 -2.61848 s -6.54621 4.58235 -7.20083 9.81931 c 0 0 -27.49407 8.51007 -28.14869 0.65462 s 13.747 -14.40165 13.747 -14.40165 l 11.12855 -17.02014 Z" stroke-linecap="round"/>
</g>
		<g transform="matrix(1 0 0 1 53.3517 196.2193)">
<path style="stroke: none; stroke-width: 1; stroke-dasharray: none; stroke-linecap: butt; stroke-dashoffset: 0; stroke-linejoin: miter; stroke-miterlimit: 4; is-custom-font: none; font-file-url: none; fill: rgb(255,185,185); fill-rule: nonzero; opacity: 1;" transform=" translate(-653.3517, -646.2193)" d="M 671.68112 602.687 s -15.7109 36.00414 -15.7109 46.47807 c 0 0 6.2189 28.476 4.255 36.33145 l -6.87351 14.729 l -14.40166 -5.89158 l -3.92772 -39.27724 l 0.65462 -62.84359 Z" stroke-linecap="round"/>
</g>
		<g transform="matrix(1 0 0 1 46.3404 280.3661)">
<path style="stroke: none; stroke-width: 1; stroke-dasharray: none; stroke-linecap: butt; stroke-dashoffset: 0; stroke-linejoin: miter; stroke-miterlimit: 4; is-custom-font: none; font-file-url: none; fill: rgb(47,46,65); fill-rule: nonzero; opacity: 1;" transform=" translate(-646.3405, -730.3661)" d="M 636.3316 689.75158 L 664.48029 678.623 l 3.2731 55.64276 s 5.89159 17.02013 3.92773 23.56634 c 0 0 1.30924 11.12855 -1.96387 11.78317 s -12.43779 1.96387 -13.09241 1.30924 s -0.65462 -2.61848 -0.65462 -2.61848 s -6.54621 4.58235 -7.20083 9.81931 c 0 0 -27.49406 8.51007 -28.14869 0.65462 s 13.747 -14.40165 13.747 -14.40165 l 11.12855 -17.02014 Z" stroke-linecap="round"/>
</g>
		<g transform="matrix(1 0 0 1 28.4762 -77.7394)">
<circle style="stroke: none; stroke-width: 1; stroke-dasharray: none; stroke-linecap: butt; stroke-dashoffset: 0; stroke-linejoin: miter; stroke-miterlimit: 4; is-custom-font: none; font-file-url: none; fill: rgb(255,185,185); fill-rule: nonzero; opacity: 1;" cx="0" cy="0" r="20.94786"/>
</g>
		<g transform="matrix(1 0 0 1 35.1861 -10.2793)">
<path style="stroke: none; stroke-width: 1; stroke-dasharray: none; stroke-linecap: butt; stroke-dashoffset: 0; stroke-linejoin: miter; stroke-miterlimit: 4; is-custom-font: none; font-file-url: none; fill: rgb(32,65,22); fill-rule: nonzero; opacity: 1;" transform=" translate(-635.186, -439.7206)" d="M 631.09464 414.15628 l 16.25581 -8.44172 l 7.31053 5.82324 s 17.67476 -0.65462 24.221 7.20082 S 689.02856 446.56 689.02856 446.56 s -21.60248 -4.58234 -18.984 13.747 l -3.92773 -10.47393 l -3.60041 8.83738 l -43.85959 15.05627 l -19.63862 -33.38565 s -13.09241 -3.92773 -17.67476 5.237 c 0 0 0.98194 -33.05834 13.747 -34.04027 c 8.58483 -0.66037 15.05627 -0.65462 15.05627 -0.65462 l 7.20083 -1.30925 l 4.61127 -1.63655 Z" stroke-linecap="round"/>
</g>
		<g transform="matrix(1 0 0 1 29.3583 59.0558)">
<path style="stroke: none; stroke-width: 1; stroke-dasharray: none; stroke-linecap: butt; stroke-dashoffset: 0; stroke-linejoin: miter; stroke-miterlimit: 4; is-custom-font: none; font-file-url: none; fill: rgb(47,46,65); fill-rule: nonzero; opacity: 1;" transform=" translate(-629.3584, -509.0558)" d="M 667 412 s -10.01434 27.98029 1.58842 40.59849 L 658.916 485.83724 S 693.2836 588.94 683.46429 603.34165 c 0 0 -36.65876 18.32938 -109.97627 -6.5462 L 603.27326 481.2549 l -4.255 -48.76924 l 5.89159 -22.91173 l 13.09241 -1.30924 s -7.85545 29.45793 6.54621 34.04028 S 653 409 653 409 Z" stroke-linecap="round"/>
</g>
		<g transform="matrix(1 0 0 1 68.8367 53.0903)">
<path style="stroke: none; stroke-width: 1; stroke-dasharray: none; stroke-linecap: butt; stroke-dashoffset: 0; stroke-linejoin: miter; stroke-miterlimit: 4; is-custom-font: none; font-file-url: none; fill: rgb(255,185,185); fill-rule: nonzero; opacity: 1;" transform=" translate(-668.8367, -503.0903)" d="M 667.42608 439.03187 v 34.69489 l -2.94579 63.1709 s -18.984 35.34951 -0.65462 32.731 s 12.11048 -33.713 12.11048 -33.713 l 4.58235 -62.189 l 1.30924 -37.31338 Z" stroke-linecap="round"/>
</g>
		<g transform="matrix(1 0 0 1 78.1366 -17.5031)">
<path style="stroke: none; stroke-width: 1; stroke-dasharray: none; stroke-linecap: butt; stroke-dashoffset: 0; stroke-linejoin: miter; stroke-miterlimit: 4; is-custom-font: none; font-file-url: none; fill: rgb(32,65,22); fill-rule: nonzero; opacity: 1;" transform=" translate(-678.1366, -432.4969)" d="M 689.02856 446.56 s -2.327 -33.6185 -21.784 -33.50208 v 38.87822 S 681.82774 443.2869 689.02856 446.56 Z" stroke-linecap="round"/>
</g>
		<g transform="matrix(1 0 0 1 26.5409 -76.5883)">
<path style="stroke: none; stroke-width: 1; stroke-dasharray: none; stroke-linecap: butt; stroke-dashoffset: 0; stroke-linejoin: miter; stroke-miterlimit: 4; is-custom-font: none; font-file-url: none; fill: rgb(47,46,65); fill-rule: nonzero; opacity: 1;" transform=" translate(-626.5409, -373.4118)" d="M 616.64874 342.94043 s -10.827 2.03656 -13.33084 15.53985 a 24.78991 24.78991 0 0 0 -0.212 6.89493 c 0.25 2.59923 -0.11264 8.08912 -5.75648 14.55341 a 141.51216 141.51216 0 0 0 -10.27621 13.19744 h 0 l 11.31328 3.01174 l 5.05475 -18.744 a 95.88677 95.88677 0 0 1 11.20451 -25.75249 l 0.10392 -0.16674 s 3.75752 10.04 13.82869 11.41637 l -3.10528 -4.08841 s 11.77326 6.80583 18.44347 8.88488 a 4.38253 4.38253 0 0 1 1.41421 7.6208 q -0.071 0.05581 -0.14455 0.11171 c -4.90609 3.72634 -14.9149 12.61776 -10.96075 21.219 s -0.657 10.16948 -0.657 10.16948 l 8.50294 -3.23477 l 3.89178 -1.66655 l -0.39325 2.87748 l 18.99854 0.398 s 5.1339 -0.03118 -3.98533 -13.73515 c 0 0 -2.20039 -5.13845 -0.394 -9.06405 a 20.85263 20.85263 0 0 0 2.10583 -9.55488 C 661.72064 359.01229 655.90044 330.9046 616.64874 342.94043 Z" stroke-linecap="round"/>
</g>
		<g transform="matrix(0.1354 -0.9908 0.9908 0.1354 29.8421 -80.0024)">
<ellipse style="stroke: none; stroke-width: 1; stroke-dasharray: none; stroke-linecap: butt; stroke-dashoffset: 0; stroke-linejoin: miter; stroke-miterlimit: 4; is-custom-font: none; font-file-url: none; fill: rgb(47,46,65); fill-rule: nonzero; opacity: 1;" cx="0" cy="0" rx="6.54621" ry="5.89159"/>
</g>
		<g transform="matrix(0.1354 -0.9908 0.9908 0.1354 14.9245 -82.0411)">
<ellipse style="stroke: none; stroke-width: 1; stroke-dasharray: none; stroke-linecap: butt; stroke-dashoffset: 0; stroke-linejoin: miter; stroke-miterlimit: 4; is-custom-font: none; font-file-url: none; fill: rgb(47,46,65); fill-rule: nonzero; opacity: 1;" cx="0" cy="0" rx="6.54621" ry="5.89159"/>
</g>
		<g transform="matrix(0.9981 -0.0617 0.0617 0.9981 41.7824 -80.3526)">
<rect style="stroke: none; stroke-width: 1; stroke-dasharray: none; stroke-linecap: butt; stroke-dashoffset: 0; stroke-linejoin: miter; stroke-miterlimit: 4; is-custom-font: none; font-file-url: none; fill: rgb(47,46,65); fill-rule: nonzero; opacity: 1;" x="-6.67605" y="-0.9999" rx="0" ry="0" width="13.3521" height="1.9998"/>
</g>
		<g transform="matrix(0.1354 -0.9908 0.9908 0.1354 22.0614 -81.0647)">
<rect style="stroke: none; stroke-width: 1; stroke-dasharray: none; stroke-linecap: butt; stroke-dashoffset: 0; stroke-linejoin: miter; stroke-miterlimit: 4; is-custom-font: none; font-file-url: none; fill: rgb(47,46,65); fill-rule: nonzero; opacity: 1;" x="-1" y="-3.27345" rx="0" ry="0" width="2" height="6.5469"/>
</g>
		<g transform="matrix(1 0 0 1 -111.395 315.9854)">
<path style="stroke: none; stroke-width: 1; stroke-dasharray: none; stroke-linecap: butt; stroke-dashoffset: 0; stroke-linejoin: miter; stroke-miterlimit: 4; is-custom-font: none; font-file-url: none; fill: rgb(63,61,86); fill-rule: nonzero; opacity: 1;" transform=" translate(-488.605, -765.9854)" d="M 481.18144 772.44738 s 0.69056 -14.46983 14.84712 -12.78791" stroke-linecap="round"/>
</g>
		<g transform="matrix(1 0 0 1 -122.8185 301.5923)">
<circle style="stroke: none; stroke-width: 1; stroke-dasharray: none; stroke-linecap: butt; stroke-dashoffset: 0; stroke-linejoin: miter; stroke-miterlimit: 4; is-custom-font: none; font-file-url: none; fill: rgb(32,65,22); fill-rule: nonzero; opacity: 1;" cx="0" cy="0" r="7.08526"/>
</g>
		<g transform="matrix(1 0 0 1 -122.9714 320.5234)">
<rect style="stroke: none; stroke-width: 1; stroke-dasharray: none; stroke-linecap: butt; stroke-dashoffset: 0; stroke-linejoin: miter; stroke-miterlimit: 4; is-custom-font: none; font-file-url: none; fill: rgb(63,61,86); fill-rule: nonzero; opacity: 1;" x="-1" y="-7" rx="0" ry="0" width="2" height="14"/>
</g>
		<g transform="matrix(1 0 0 1 146.605 318.9854)">
<path style="stroke: none; stroke-width: 1; stroke-dasharray: none; stroke-linecap: butt; stroke-dashoffset: 0; stroke-linejoin: miter; stroke-miterlimit: 4; is-custom-font: none; font-file-url: none; fill: rgb(63,61,86); fill-rule: nonzero; opacity: 1;" transform=" translate(-746.605, -768.9854)" d="M 739.18144 775.44738 s 0.69056 -14.46983 14.84712 -12.78791" stroke-linecap="round"/>
</g>
		<g transform="matrix(1 0 0 1 135.1815 304.5923)">
<circle style="stroke: none; stroke-width: 1; stroke-dasharray: none; stroke-linecap: butt; stroke-dashoffset: 0; stroke-linejoin: miter; stroke-miterlimit: 4; is-custom-font: none; font-file-url: none; fill: rgb(32,65,22); fill-rule: nonzero; opacity: 1;" cx="0" cy="0" r="7.08526"/>
</g>
		<g transform="matrix(1 0 0 1 135.0286 323.5234)">
<rect style="stroke: none; stroke-width: 1; stroke-dasharray: none; stroke-linecap: butt; stroke-dashoffset: 0; stroke-linejoin: miter; stroke-miterlimit: 4; is-custom-font: none; font-file-url: none; fill: rgb(63,61,86); fill-rule: nonzero; opacity: 1;" x="-1" y="-7" rx="0" ry="0" width="2" height="14"/>
</g>
		<g transform="matrix(1 0 0 1 -278.395 293.9854)">
<path style="stroke: none; stroke-width: 1; stroke-dasharray: none; stroke-linecap: butt; stroke-dashoffset: 0; stroke-linejoin: miter; stroke-miterlimit: 4; is-custom-font: none; font-file-url: none; fill: rgb(63,61,86); fill-rule: nonzero; opacity: 1;" transform=" translate(-321.605, -743.9854)" d="M 314.18144 750.44738 s 0.69056 -14.46983 14.84712 -12.78791" stroke-linecap="round"/>
</g>
		<g transform="matrix(1 0 0 1 -289.8185 279.5923)">
<circle style="stroke: none; stroke-width: 1; stroke-dasharray: none; stroke-linecap: butt; stroke-dashoffset: 0; stroke-linejoin: miter; stroke-miterlimit: 4; is-custom-font: none; font-file-url: none; fill: rgb(32,65,22); fill-rule: nonzero; opacity: 1;" cx="0" cy="0" r="7.08526"/>
</g>
		<g transform="matrix(1 0 0 1 -289.9714 298.5234)">
<rect style="stroke: none; stroke-width: 1; stroke-dasharray: none; stroke-linecap: butt; stroke-dashoffset: 0; stroke-linejoin: miter; stroke-miterlimit: 4; is-custom-font: none; font-file-url: none; fill: rgb(63,61,86); fill-rule: nonzero; opacity: 1;" x="-1" y="-7" rx="0" ry="0" width="2" height="14"/>
</g>
		<g transform="matrix(1 0 0 1 -169.395 274.9854)">
<path style="stroke: none; stroke-width: 1; stroke-dasharray: none; stroke-linecap: butt; stroke-dashoffset: 0; stroke-linejoin: miter; stroke-miterlimit: 4; is-custom-font: none; font-file-url: none; fill: rgb(63,61,86); fill-rule: nonzero; opacity: 1;" transform=" translate(-430.605, -724.9854)" d="M 423.18144 731.44738 s 0.69056 -14.46983 14.84712 -12.78791" stroke-linecap="round"/>
</g>
		<g transform="matrix(1 0 0 1 -180.8185 260.5923)">
<circle style="stroke: none; stroke-width: 1; stroke-dasharray: none; stroke-linecap: butt; stroke-dashoffset: 0; stroke-linejoin: miter; stroke-miterlimit: 4; is-custom-font: none; font-file-url: none; fill: rgb(32,65,22); fill-rule: nonzero; opacity: 1;" cx="0" cy="0" r="7.08526"/>
</g>
		<g transform="matrix(1 0 0 1 -180.9714 279.5234)">
<rect style="stroke: none; stroke-width: 1; stroke-dasharray: none; stroke-linecap: butt; stroke-dashoffset: 0; stroke-linejoin: miter; stroke-miterlimit: 4; is-custom-font: none; font-file-url: none; fill: rgb(63,61,86); fill-rule: nonzero; opacity: 1;" x="-1" y="-7" rx="0" ry="0" width="2" height="14"/>
</g>
		<g transform="matrix(1 0 0 1 103.605 301.9854)">
<path style="stroke: none; stroke-width: 1; stroke-dasharray: none; stroke-linecap: butt; stroke-dashoffset: 0; stroke-linejoin: miter; stroke-miterlimit: 4; is-custom-font: none; font-file-url: none; fill: rgb(63,61,86); fill-rule: nonzero; opacity: 1;" transform=" translate(-703.605, -751.9854)" d="M 696.18144 758.44738 s 0.69056 -14.46983 14.84712 -12.78791" stroke-linecap="round"/>
</g>
		<g transform="matrix(1 0 0 1 92.1815 287.5923)">
<circle style="stroke: none; stroke-width: 1; stroke-dasharray: none; stroke-linecap: butt; stroke-dashoffset: 0; stroke-linejoin: miter; stroke-miterlimit: 4; is-custom-font: none; font-file-url: none; fill: rgb(32,65,22); fill-rule: nonzero; opacity: 1;" cx="0" cy="0" r="7.08526"/>
</g>
		<g transform="matrix(1 0 0 1 92.0286 306.5234)">
<rect style="stroke: none; stroke-width: 1; stroke-dasharray: none; stroke-linecap: butt; stroke-dashoffset: 0; stroke-linejoin: miter; stroke-miterlimit: 4; is-custom-font: none; font-file-url: none; fill: rgb(63,61,86); fill-rule: nonzero; opacity: 1;" x="-1" y="-7" rx="0" ry="0" width="2" height="14"/>
</g>
		<g transform="matrix(1 0 0 1 -104.4523 -305.6223)">
<path style="stroke: none; stroke-width: 1; stroke-dasharray: none; stroke-linecap: butt; stroke-dashoffset: 0; stroke-linejoin: miter; stroke-miterlimit: 4; is-custom-font: none; font-file-url: none; fill: rgb(63,61,86); fill-rule: nonzero; opacity: 1;" transform=" translate(-495.5477, -144.3777)" d="M 497.82288 144.98932 l 9.20568 -7.36279 c -7.15148 -0.789 -10.0899 3.11126 -11.29248 6.19836 c -5.587 -2.32 -11.66919 0.72046 -11.66919 0.72046 l 18.41889 6.68671 A 13.938 13.938 0 0 0 497.82288 144.98932 Z" stroke-linecap="round"/>
</g>
		<g transform="matrix(1 0 0 1 35.5477 -230.6223)">
<path style="stroke: none; stroke-width: 1; stroke-dasharray: none; stroke-linecap: butt; stroke-dashoffset: 0; stroke-linejoin: miter; stroke-miterlimit: 4; is-custom-font: none; font-file-url: none; fill: rgb(63,61,86); fill-rule: nonzero; opacity: 1;" transform=" translate(-635.5477, -219.3777)" d="M 637.82288 219.98932 l 9.20568 -7.36279 c -7.15148 -0.789 -10.0899 3.11126 -11.29248 6.19836 c -5.587 -2.32 -11.66919 0.72046 -11.66919 0.72046 l 18.41889 6.68671 A 13.938 13.938 0 0 0 637.82288 219.98932 Z" stroke-linecap="round"/>
</g>
		<g transform="matrix(1 0 0 1 -115.4523 -166.6223)">
<path style="stroke: none; stroke-width: 1; stroke-dasharray: none; stroke-linecap: butt; stroke-dashoffset: 0; stroke-linejoin: miter; stroke-miterlimit: 4; is-custom-font: none; font-file-url: none; fill: rgb(63,61,86); fill-rule: nonzero; opacity: 1;" transform=" translate(-484.5477, -283.3777)" d="M 486.82288 283.98932 l 9.20568 -7.36279 c -7.15148 -0.789 -10.0899 3.11126 -11.29248 6.19836 c -5.587 -2.32 -11.66919 0.72046 -11.66919 0.72046 l 18.41889 6.68671 A 13.938 13.938 0 0 0 486.82288 283.98932 Z" stroke-linecap="round"/>
</g>
</g>
</g>
<g transform="matrix(0.5165 0 0 0.5165 500.008 697.5673)" id="447359">
<g style="" vector-effect="non-scaling-stroke">
		<g transform="matrix(1 0 0 1 -125.8262 30.3629)">
<path style="stroke: none; stroke-width: 1; stroke-dasharray: none; stroke-linecap: butt; stroke-dashoffset: 0; stroke-linejoin: miter; stroke-miterlimit: 4; is-custom-font: none; font-file-url: none; fill: rgb(255,184,184); fill-rule: nonzero; opacity: 1;" transform=" translate(-474.1738, -480.3629)" d="M 520.793 516.6474 a 10.74264 10.74264 0 0 0 -10.95628 -12.30071 l -68.80437 -69.56692 l -13.59213 19.00109 l 71.90643 62.40721 a 10.80091 10.80091 0 0 0 21.44635 0.45933 Z" stroke-linecap="round"/>
</g>
		<g transform="matrix(1 0 0 1 -149.7152 6.0209)">
<path style="stroke: none; stroke-width: 1; stroke-dasharray: none; stroke-linecap: butt; stroke-dashoffset: 0; stroke-linejoin: miter; stroke-miterlimit: 4; is-custom-font: none; font-file-url: none; fill: rgb(32,65,22); fill-rule: nonzero; opacity: 1;" transform=" translate(-450.2848, -456.021)" d="M 488.20078 476.47743 l -17.5613 17.542 a 4.51352 4.51352 0 0 1 -6.335 0.02552 L 416.317 446.86677 a 17.603 17.603 0 1 1 24.93713 -24.849 l 46.98661 48.13244 A 4.51547 4.51547 0 0 1 488.20078 476.47743 Z" stroke-linecap="round"/>
</g>
		<g transform="matrix(1 0 0 1 -173.3891 -84.1889)">
<circle style="stroke: none; stroke-width: 1; stroke-dasharray: none; stroke-linecap: butt; stroke-dashoffset: 0; stroke-linejoin: miter; stroke-miterlimit: 4; is-custom-font: none; font-file-url: none; fill: rgb(255,184,184); fill-rule: nonzero; opacity: 1;" cx="0" cy="0" r="24.56103"/>
</g>
		<g transform="matrix(1 0 0 1 -231.4145 203.4245)">
<polygon style="stroke: none; stroke-width: 1; stroke-dasharray: none; stroke-linecap: butt; stroke-dashoffset: 0; stroke-linejoin: miter; stroke-miterlimit: 4; is-custom-font: none; font-file-url: none; fill: rgb(255,184,184); fill-rule: nonzero; opacity: 1;" points="-24.9655,6.7115 -18.7465,17.2765 24.9655,-1.6825 15.7865,-17.2765 -24.9655,6.7115 "/>
</g>
		<g transform="matrix(1 0 0 1 -254.1749 226.4738)">
<path style="stroke: none; stroke-width: 1; stroke-dasharray: none; stroke-linecap: butt; stroke-dashoffset: 0; stroke-linejoin: miter; stroke-miterlimit: 4; is-custom-font: none; font-file-url: none; fill: rgb(47,46,65); fill-rule: nonzero; opacity: 1;" transform=" translate(-345.8251, -676.4738)" d="M 345.48345 655.41085 l 12.24733 20.80687 l 0.00049 0.00085 a 15.386 15.386 0 0 1 -5.45551 21.06459 l -0.4309 0.25361 l -20.05237 -34.067 Z" stroke-linecap="round"/>
</g>
		<g transform="matrix(1 0 0 1 -175.278 224.554)">
<polygon style="stroke: none; stroke-width: 1; stroke-dasharray: none; stroke-linecap: butt; stroke-dashoffset: 0; stroke-linejoin: miter; stroke-miterlimit: 4; is-custom-font: none; font-file-url: none; fill: rgb(255,184,184); fill-rule: nonzero; opacity: 1;" points="-9.045,23.644 3.215,23.644 9.047,-23.644 -9.047,-23.643 -9.045,23.644 "/>
</g>
		<g transform="matrix(1 0 0 1 -167.6844 252.1386)">
<path style="stroke: none; stroke-width: 1; stroke-dasharray: none; stroke-linecap: butt; stroke-dashoffset: 0; stroke-linejoin: miter; stroke-miterlimit: 4; is-custom-font: none; font-file-url: none; fill: rgb(47,46,65); fill-rule: nonzero; opacity: 1;" transform=" translate(-432.3156, -702.1386)" d="M 412.55 694.1958 l 24.1438 -0.001 h 0.001 a 15.38605 15.38605 0 0 1 15.38647 15.38623 v 0.5 l -39.53052 0.00146 Z" stroke-linecap="round"/>
</g>
		<g transform="matrix(1 0 0 1 -203.4039 148.0894)">
<path style="stroke: none; stroke-width: 1; stroke-dasharray: none; stroke-linecap: butt; stroke-dashoffset: 0; stroke-linejoin: miter; stroke-miterlimit: 4; is-custom-font: none; font-file-url: none; fill: rgb(47,46,65); fill-rule: nonzero; opacity: 1;" transform=" translate(-396.5961, -598.0894)" d="M 366.38843 669.54838 a 4.49319 4.49319 0 0 1 -3.624 -1.833 l -11.82373 -16.0586 a 4.4996 4.4996 0 0 1 1.12452 -6.41015 l 52.614 -35.1416 l -31.74658 -83.47461 l 67.88916 5.60254 l 2.28662 71.7334 a 36.04577 36.04577 0 0 1 -18.04517 32.42382 l -56.42651 32.55371 A 4.48594 4.48594 0 0 1 366.38843 669.54838 Z" stroke-linecap="round"/>
</g>
		<g transform="matrix(1 0 0 1 -175.5254 200.6758)">
<path style="stroke: none; stroke-width: 1; stroke-dasharray: none; stroke-linecap: butt; stroke-dashoffset: 0; stroke-linejoin: miter; stroke-miterlimit: 4; is-custom-font: none; font-file-url: none; fill: rgb(47,46,65); fill-rule: nonzero; opacity: 1;" transform=" translate(-424.4745, -650.6758)" d="M 416.04712 688.59818 a 4.49988 4.49988 0 0 1 -4.48877 -4.33984 l -2.488 -69.88184 l 30.80835 -1.623 l -2.45312 70.38379 a 4.48729 4.48729 0 0 1 -4.19971 4.333 l -16.8728 1.11817 C 416.25073 688.59525 416.14868 688.59818 416.04712 688.59818 Z" stroke-linecap="round"/>
</g>
		<g transform="matrix(1 0 0 1 -190.3854 21.4476)">
<path style="stroke: none; stroke-width: 1; stroke-dasharray: none; stroke-linecap: butt; stroke-dashoffset: 0; stroke-linejoin: miter; stroke-miterlimit: 4; is-custom-font: none; font-file-url: none; fill: rgb(32,65,22); fill-rule: nonzero; opacity: 1;" transform=" translate(-409.6146, -471.4476)" d="M 448.67871 546.1099 c -7.83838 0 -35.21655 -8.81641 -44.72119 -11.959 c -1.42188 1.13769 -9.23315 6.97851 -18.35107 5.91113 c -5.626 -0.66016 -10.57886 -3.84473 -14.721 -9.46582 c -9.147 -12.41406 2.15063 -65.65137 13.239 -108.126 a 34.26782 34.26782 0 0 1 40.52857 -24.87988 h 0 a 34.57136 34.57136 0 0 1 26.08764 25.37793 c 2.08765 8.498 0.29175 18.49414 -1.01953 25.79394 c -0.61645 3.43164 -1.10351 6.14258 -0.937 7.47461 c 0.64355 5.14844 4.21875 85.8916 1.91992 89.33985 C 450.45923 545.94388 449.75122 546.1099 448.67871 546.1099 Z" stroke-linecap="round"/>
</g>
		<g transform="matrix(1 0 0 1 -188.6413 40.1979)">
<path style="stroke: none; stroke-width: 1; stroke-dasharray: none; stroke-linecap: butt; stroke-dashoffset: 0; stroke-linejoin: miter; stroke-miterlimit: 4; is-custom-font: none; font-file-url: none; fill: rgb(255,184,184); fill-rule: nonzero; opacity: 1;" transform=" translate(-411.3588, -490.1979)" d="M 420.00379 546.25292 a 10.74266 10.74266 0 0 0 0.9416 -16.44569 l 0.48533 -97.84356 l -23.04478 3.8374 l 6.76925 94.97037 a 10.80091 10.80091 0 0 0 14.8486 15.48148 Z" stroke-linecap="round"/>
</g>
		<g transform="matrix(1 0 0 1 -186.9951 0.0423)">
<path style="stroke: none; stroke-width: 1; stroke-dasharray: none; stroke-linecap: butt; stroke-dashoffset: 0; stroke-linejoin: miter; stroke-miterlimit: 4; is-custom-font: none; font-file-url: none; fill: rgb(32,65,22); fill-rule: nonzero; opacity: 1;" transform=" translate(-413.0049, -450.0423)" d="M 425.33374 494.79935 H 400.512 a 4.51352 4.51352 0 0 1 -4.5 -4.459 l -0.60937 -67.292 a 17.603 17.603 0 1 1 35.2041 0.043 l -0.77319 67.25976 A 4.51547 4.51547 0 0 1 425.33374 494.79935 Z" stroke-linecap="round"/>
</g>
		<g transform="matrix(1 0 0 1 -175.2059 -88.7394)">
<path style="stroke: none; stroke-width: 1; stroke-dasharray: none; stroke-linecap: butt; stroke-dashoffset: 0; stroke-linejoin: miter; stroke-miterlimit: 4; is-custom-font: none; font-file-url: none; fill: rgb(47,46,65); fill-rule: nonzero; opacity: 1;" transform=" translate(-424.7941, -361.2607)" d="M 420.35705 390.26988 c -11.24529 0.02059 -21.85416 -8.868 -23.80286 -19.94323 a 28.67148 28.67148 0 0 1 0.91927 -13.01372 a 34.95394 34.95394 0 0 1 47.93529 -21.95277 c 3.00832 1.36131 5.97146 3.31644 7.3489 6.31741 s 0.51536 7.19528 -2.49791 8.5456 c -1.96915 0.88243 -4.44022 0.4491 -6.18718 1.71574 c -2.50929 1.81936 -1.86334 5.69129 -0.74286 8.58112 s 2.38775 6.38691 0.50946 8.85239 c -1.75023 2.29738 -5.24872 2.22609 -8.00435 1.36136 s -5.47558 -2.31276 -8.34865 -2.01821 c -4.19039 0.4296 -7.20172 4.59773 -7.7591 8.77305 s 0.75474 8.34892 2.05018 12.35714 Z" stroke-linecap="round"/>
</g>
		<g transform="matrix(1 0 0 1 249.3092 -87.1293)">
<path style="stroke: none; stroke-width: 1; stroke-dasharray: none; stroke-linecap: butt; stroke-dashoffset: 0; stroke-linejoin: miter; stroke-miterlimit: 4; is-custom-font: none; font-file-url: none; fill: rgb(32,65,22); fill-rule: nonzero; opacity: 1;" transform=" translate(-849.3093, -362.8707)" d="M 727.69556 415.33663 c 0 -67.16541 54.44832 -226.54561 121.61373 -226.54561 S 970.923 348.17122 970.923 415.33663 a 121.61373 121.61373 0 1 1 -243.22747 0 Z" stroke-linecap="round"/>
</g>
		<g transform="matrix(1 0 0 1 249.3093 50.5669)">
<path style="stroke: none; stroke-width: 1; stroke-dasharray: none; stroke-linecap: butt; stroke-dashoffset: 0; stroke-linejoin: miter; stroke-miterlimit: 4; is-custom-font: none; font-file-url: none; fill: rgb(63,61,86); fill-rule: nonzero; opacity: 1;" transform=" translate(-849.3093, -500.5669)" d="M 849.30925 711.209 a 1 1 0 0 1 -1 -1 V 290.9248 a 1 1 0 0 1 2 0 V 710.209 A 1 1 0 0 1 849.30925 711.209 Z" stroke-linecap="round"/>
</g>
		<g transform="matrix(1 0 0 1 225.2442 -103.1943)">
<path style="stroke: none; stroke-width: 1; stroke-dasharray: none; stroke-linecap: butt; stroke-dashoffset: 0; stroke-linejoin: miter; stroke-miterlimit: 4; is-custom-font: none; font-file-url: none; fill: rgb(63,61,86); fill-rule: nonzero; opacity: 1;" transform=" translate(-825.2442, -346.8057)" d="M 849.30925 371.87061 a 0.99683 0.99683 0 0 1 -0.70715 -0.293 l -48.13452 -48.13428 a 1 1 0 0 1 1.41431 -1.41406 l 48.13452 48.13427 a 1 1 0 0 1 -0.70716 1.707 Z" stroke-linecap="round"/>
</g>
		<g transform="matrix(1 0 0 1 289.6118 -36.1021)">
<path style="stroke: none; stroke-width: 1; stroke-dasharray: none; stroke-linecap: butt; stroke-dashoffset: 0; stroke-linejoin: miter; stroke-miterlimit: 4; is-custom-font: none; font-file-url: none; fill: rgb(63,61,86); fill-rule: nonzero; opacity: 1;" transform=" translate(-889.6118, -413.898)" d="M 849.30925 455.20068 a 1 1 0 0 1 -0.70715 -1.707 l 80.61 -80.61035 a 1 1 0 0 1 1.4143 1.41406 l -80.61 80.61035 A 0.997 0.997 0 0 1 849.30925 455.20068 Z" stroke-linecap="round"/>
</g>
		<g transform="matrix(1 0 0 1 -24.84 136.9647)">
<path style="stroke: none; stroke-width: 1; stroke-dasharray: none; stroke-linecap: butt; stroke-dashoffset: 0; stroke-linejoin: miter; stroke-miterlimit: 4; is-custom-font: none; font-file-url: none; fill: rgb(204,204,204); fill-rule: nonzero; opacity: 1;" transform=" translate(-575.16, -586.9647)" d="M 512.75454 516.07833 c 15.95481 -3.60678 34.03035 8.87341 34.59062 25.62768 c 0.15759 4.71249 -1.22354 9.66138 -4.84973 12.86729 c -2.99372 2.64675 -7.44863 3.9815 -11.3187 2.68784 c -7.44737 -2.48945 -7.845 -12.86687 -3.85 -18.40942 c 5.40939 -7.50479 16.12575 -8.78623 24.62919 -7.89363 c 10.3961 1.09127 20.27689 5.64956 28.56833 11.89757 c 16.5987 12.50793 27.168 31.67789 35.72289 50.19942 a 253.09711 253.09711 0 0 1 18.95912 59.57906 q 0.72364 3.8748 1.32589 7.77061 a 1.51056 1.51056 0 0 0 1.8598 1.02108 a 1.53833 1.53833 0 0 0 1.02107 -1.8598 a 256.43885 256.43885 0 0 0 -19.2345 -65.06188 c -8.95744 -20.07249 -20.2501 -40.89324 -38.21465 -54.28884 c -8.95541 -6.67776 -19.53073 -11.32453 -30.72247 -12.31825 c -9.42172 -0.83656 -20.57851 1.15666 -26.43759 9.351 c -4.62229 6.46462 -4.15275 17.20837 2.9993 21.71061 c 3.932 2.47519 8.9283 2.186 13.011 0.26156 a 16.66327 16.66327 0 0 0 8.786 -10.89127 c 2.5395 -9.30518 -1.31669 -19.36986 -7.92811 -26.021 a 33.31988 33.31988 0 0 0 -23.45167 -9.86212 a 29.53 29.53 0 0 0 -6.30452 0.75164 c -1.88353 0.42579 -1.04178 3.306 0.83872 2.88088 Z" stroke-linecap="round"/>
</g>
		<g transform="matrix(1 0 0 1 -8.6603 240.0488)">
<path style="stroke: none; stroke-width: 1; stroke-dasharray: none; stroke-linecap: butt; stroke-dashoffset: 0; stroke-linejoin: miter; stroke-miterlimit: 4; is-custom-font: none; font-file-url: none; fill: rgb(32,65,22); fill-rule: nonzero; opacity: 1;" transform=" translate(-591.3397, -690.0489)" d="M 589.698 700.34085 l -9.91475 -16.92813 l 12.22567 -7.16079 l 9.91474 16.92759 v 0.00053 a 7.0842 7.0842 0 0 1 -12.22566 7.1608 Z" stroke-linecap="round"/>
</g>
		<g transform="matrix(1 0 0 1 -43.0845 206.4358)">
<circle style="stroke: none; stroke-width: 1; stroke-dasharray: none; stroke-linecap: butt; stroke-dashoffset: 0; stroke-linejoin: miter; stroke-miterlimit: 4; is-custom-font: none; font-file-url: none; fill: rgb(32,65,22); fill-rule: nonzero; opacity: 1;" cx="0" cy="0" r="8.71897"/>
</g>
		<g transform="matrix(1 0 0 1 29.6994 240.0456)">
<path style="stroke: none; stroke-width: 1; stroke-dasharray: none; stroke-linecap: butt; stroke-dashoffset: 0; stroke-linejoin: miter; stroke-miterlimit: 4; is-custom-font: none; font-file-url: none; fill: rgb(32,65,22); fill-rule: nonzero; opacity: 1;" transform=" translate(-629.6994, -690.0456)" d="M 628.05951 700.34085 l -9.91474 -16.92813 l 12.22539 -7.16079 l 9.91475 16.92759 a 7.08423 7.08423 0 0 1 -12.2254 7.16133 Z" stroke-linecap="round"/>
</g>
		<g transform="matrix(1 0 0 1 1.077 224.0009)">
<path style="stroke: none; stroke-width: 1; stroke-dasharray: none; stroke-linecap: butt; stroke-dashoffset: 0; stroke-linejoin: miter; stroke-miterlimit: 4; is-custom-font: none; font-file-url: none; fill: rgb(63,61,86); fill-rule: nonzero; opacity: 1;" transform=" translate(-601.077, -674.0009)" d="M 558.572 674.00087 a 18.5487 18.5487 0 0 1 18.52781 -18.52781 h 58.65109 a 7.84026 7.84026 0 0 1 7.83106 7.83132 v 6.67387 a 22.57592 22.57592 0 0 1 -22.55044 22.55044 H 577.09978 A 18.5487 18.5487 0 0 1 558.572 674.00087 Z" stroke-linecap="round"/>
</g>
		<g transform="matrix(1 0 0 1 -20.8184 246.257)">
<path style="stroke: none; stroke-width: 1; stroke-dasharray: none; stroke-linecap: butt; stroke-dashoffset: 0; stroke-linejoin: miter; stroke-miterlimit: 4; is-custom-font: none; font-file-url: none; fill: rgb(63,61,86); fill-rule: nonzero; opacity: 1;" transform=" translate(-579.1816, -696.257)" d="M 572.09744 702.52378 V 682.9061 h 14.16833 v 19.61768 a 7.08416 7.08416 0 1 1 -14.16833 0 Z" stroke-linecap="round"/>
</g>
		<g transform="matrix(1 0 0 1 20.2942 246.2612)">
<path style="stroke: none; stroke-width: 1; stroke-dasharray: none; stroke-linecap: butt; stroke-dashoffset: 0; stroke-linejoin: miter; stroke-miterlimit: 4; is-custom-font: none; font-file-url: none; fill: rgb(63,61,86); fill-rule: nonzero; opacity: 1;" transform=" translate(-620.2942, -696.2612)" d="M 613.21 702.52378 V 682.9061 h 14.16833 v 19.61768 a 7.08417 7.08417 0 1 1 -14.16833 0 Z" stroke-linecap="round"/>
</g>
		<g transform="matrix(1 0 0 1 71.4424 187.6668)">
<path style="stroke: none; stroke-width: 1; stroke-dasharray: none; stroke-linecap: butt; stroke-dashoffset: 0; stroke-linejoin: miter; stroke-miterlimit: 4; is-custom-font: none; font-file-url: none; fill: rgb(32,65,22); fill-rule: nonzero; opacity: 1;" transform=" translate(-671.4424, -637.6668)" d="M 670.85511 624.90772 A 8.719 8.719 0 0 1 684.451 635.82717 l -14.33179 17.84456 l -13.59585 -10.91946 Z" stroke-linecap="round"/>
</g>
		<g transform="matrix(1 0 0 1 58.717 213.9181)">
<path style="stroke: none; stroke-width: 1; stroke-dasharray: none; stroke-linecap: butt; stroke-dashoffset: 0; stroke-linejoin: miter; stroke-miterlimit: 4; is-custom-font: none; font-file-url: none; fill: rgb(63,61,86); fill-rule: nonzero; opacity: 1;" transform=" translate(-658.717, -663.9181)" d="M 636.332 660.06044 l 11.48163 -14.29581 a 16.81159 16.81159 0 0 1 23.6078 -2.57733 l 3.58734 2.88115 a 20.04437 20.04437 0 0 1 3.07294 28.14757 l -9.45955 11.77812 a 6.29434 6.29434 0 0 1 -8.83883 0.96477 l -22.48639 -18.05985 A 6.29412 6.29412 0 0 1 636.332 660.06044 Z" stroke-linecap="round"/>
</g>
		<g transform="matrix(1 0 0 1 69.8763 185.4009)">
<path style="stroke: none; stroke-width: 1; stroke-dasharray: none; stroke-linecap: butt; stroke-dashoffset: 0; stroke-linejoin: miter; stroke-miterlimit: 4; is-custom-font: none; font-file-url: none; fill: rgb(63,61,86); fill-rule: nonzero; opacity: 1;" transform=" translate(-669.8763, -635.4009)" d="M 672.56128 622.78336 a 5.99429 5.99429 0 1 1 9.34715 7.50713 L 665.87048 650.2594 l -9.34715 -7.50713 Z" stroke-linecap="round"/>
</g>
		<g transform="matrix(1 0 0 1 58.0682 223.8094)">
<path style="stroke: none; stroke-width: 1; stroke-dasharray: none; stroke-linecap: butt; stroke-dashoffset: 0; stroke-linejoin: miter; stroke-miterlimit: 4; is-custom-font: none; font-file-url: none; fill: rgb(63,61,86); fill-rule: nonzero; opacity: 1;" transform=" translate(-658.0683, -673.8094)" d="M 649.58579 656.16211 l 24.64248 19.79151 a 8.719 8.719 0 0 1 -10.91945 13.59586 L 638.66633 669.758 Z" stroke-linecap="round"/>
</g>
		<g transform="matrix(0.6262 -0.7797 0.7797 0.6262 75.0281 237.5774)">
<ellipse style="stroke: none; stroke-width: 1; stroke-dasharray: none; stroke-linecap: butt; stroke-dashoffset: 0; stroke-linejoin: miter; stroke-miterlimit: 4; is-custom-font: none; font-file-url: none; fill: rgb(32,65,22); fill-rule: nonzero; opacity: 1;" cx="0" cy="0" rx="3.67832" ry="2.04351"/>
</g>
		<g transform="matrix(1 0 0 1 -24.423 260.0236)">
<path style="stroke: none; stroke-width: 1; stroke-dasharray: none; stroke-linecap: butt; stroke-dashoffset: 0; stroke-linejoin: miter; stroke-miterlimit: 4; is-custom-font: none; font-file-url: none; fill: rgb(204,204,204); fill-rule: nonzero; opacity: 1;" transform=" translate(-575.577, -710.0236)" d="M 921.077 711.02362 h -691 a 1 1 0 1 1 0 -2 h 691 a 1 1 0 0 1 0 2 Z" stroke-linecap="round"/>
</g>
</g>
</g>
<g transform="matrix(0.6963 0 0 0.7732 501.836 917.5706)" id="992622">
<path style="stroke: none; stroke-width: 1; stroke-dasharray: none; stroke-linecap: butt; stroke-dashoffset: 0; stroke-linejoin: miter; stroke-miterlimit: 4; is-custom-font: none; font-file-url: none; fill: rgb(32,65,22); fill-rule: nonzero; opacity: 1;" vector-effect="non-scaling-stroke" transform=" translate(-720, -208)" d="M 0 96 L 1440 96 L 1440 320 L 0 320 Z" stroke-linecap="round"/>
</g>
</svg>